<svg aria-hidden="true" style="position: absolute; width: 0; height: 0; overflow: hidden;" version="1.1" xmlns="http://www.w3.org/2000/svg" xmlns:xlink="http://www.w3.org/1999/xlink">
<defs>
<symbol id="icon-timer" viewBox="0 0 32 32">
<path d="M16.836 3.695v-1.395c0-0.236-0.094-0.462-0.26-0.629s-0.393-0.26-0.629-0.26c-0.236 0-0.462 0.094-0.629 0.26s-0.26 0.393-0.26 0.629v1.403c-6.985 0.485-12.521 6.319-12.521 13.425 0 7.422 6.040 13.461 13.463 13.461s13.463-6.040 13.463-13.461c0-7.142-5.592-13-12.627-13.433zM16 28.811c-6.443 0-11.685-5.242-11.685-11.684s5.242-11.684 11.685-11.684c6.443 0 11.685 5.241 11.685 11.684s-5.242 11.684-11.685 11.684z"></path>
<path d="M11.437 25.195c-2.902-1.646-4.704-4.738-4.704-8.068 0-0.246-0.199-0.445-0.444-0.445s-0.444 0.198-0.444 0.445c0 3.65 1.976 7.038 5.155 8.842 0.103 0.058 0.224 0.073 0.338 0.042s0.21-0.107 0.268-0.209c0.058-0.103 0.073-0.224 0.042-0.338s-0.107-0.21-0.209-0.268z"></path>
<path d="M13.861 26.414c-0.172-0.045-0.343-0.094-0.512-0.148-0.112-0.033-0.232-0.022-0.335 0.033s-0.181 0.147-0.216 0.258-0.026 0.231 0.027 0.335c0.052 0.104 0.144 0.183 0.254 0.221 0.185 0.059 0.371 0.113 0.56 0.161 0.114 0.029 0.235 0.012 0.337-0.048s0.175-0.158 0.205-0.272c0.015-0.056 0.018-0.115 0.010-0.173s-0.028-0.113-0.057-0.163c-0.030-0.050-0.069-0.094-0.116-0.129s-0.1-0.060-0.156-0.075z"></path>
<path d="M27.47 8.332c0.167 0.166 0.393 0.26 0.629 0.259s0.462-0.094 0.628-0.261c0.167-0.167 0.26-0.393 0.259-0.629s-0.094-0.462-0.261-0.628l-2.308-2.302c-0.083-0.082-0.181-0.148-0.289-0.192s-0.224-0.067-0.34-0.067c-0.117 0-0.232 0.023-0.34 0.068s-0.206 0.111-0.288 0.193c-0.166 0.167-0.26 0.393-0.259 0.629s0.094 0.462 0.261 0.628l2.308 2.302z"></path>
<path d="M16.836 16.962v-7.106c0-0.236-0.094-0.462-0.26-0.629s-0.393-0.26-0.629-0.26c-0.236 0-0.462 0.094-0.629 0.26s-0.26 0.393-0.26 0.629v7.49c0 0.245 0.128 0.478 0.305 0.646l2.601 2.431c0.172 0.162 0.391 0.243 0.61 0.243 0.119 0 0.237-0.025 0.346-0.073s0.207-0.118 0.287-0.207c0.338-0.357 0.308-0.92-0.049-1.256l-2.323-2.168z"></path>
</symbol>
<symbol id="icon-arrow-small" viewBox="0 0 32 32">
<path fill="#fff" style="fill: var(--color1, #fff)" d="M17.495 8.391c-0.25 0.25-0.39 0.589-0.39 0.943s0.14 0.693 0.39 0.943l4.389 4.391-13.884 0.009c-0.354 0-0.693 0.141-0.943 0.391s-0.391 0.589-0.391 0.943c0 0.354 0.14 0.693 0.391 0.943s0.589 0.391 0.943 0.391l13.885-0.009-4.391 4.391c-0.127 0.123-0.229 0.27-0.299 0.433s-0.107 0.338-0.108 0.515c-0.001 0.177 0.032 0.353 0.099 0.517s0.166 0.313 0.291 0.438 0.274 0.224 0.438 0.291c0.164 0.067 0.339 0.101 0.517 0.099s0.352-0.038 0.515-0.108 0.31-0.171 0.433-0.299l4.781-4.78c0.371-0.371 0.666-0.812 0.867-1.298s0.305-1.006 0.305-1.531-0.104-1.046-0.305-1.531c-0.201-0.485-0.496-0.926-0.867-1.298l-4.781-4.781c-0.25-0.25-0.589-0.39-0.943-0.39s-0.693 0.14-0.943 0.39v0z"></path>
</symbol>
<symbol id="icon-asian" viewBox="0 0 41 32">
<path fill="#363853" style="fill: var(--color2, #363853)" d="M14.241 8.063h2c0.519 0 0.941 0.422 0.941 0.941v1.379c0 0.335 0.272 0.607 0.607 0.607s0.607-0.272 0.607-0.607v-1.379c0-1.188-0.966-2.154-2.154-2.154h-2c-0.51 0-0.925-0.415-0.925-0.925s0.415-0.925 0.925-0.925h4.434c1.179 0 2.138-0.959 2.138-2.139s-0.959-2.138-2.138-2.138h-3.547c-0.335 0-0.607 0.272-0.607 0.607s0.272 0.607 0.607 0.607h3.547c0.51 0 0.925 0.415 0.925 0.925s-0.415 0.925-0.925 0.925h-4.434c-1.179 0-2.139 0.959-2.139 2.138s0.959 2.139 2.139 2.139z"></path>
<path fill="#363853" style="fill: var(--color2, #363853)" d="M6.954 12.134h1.985c0.512 0 0.929 0.417 0.929 0.929v1.368c0 0.335 0.272 0.607 0.607 0.607s0.607-0.272 0.607-0.607v-1.368c0-1.181-0.961-2.143-2.142-2.143h-1.985c-0.504 0-0.913-0.41-0.913-0.913s0.41-0.913 0.913-0.913h2.32c0.335 0 0.607-0.272 0.607-0.607s-0.272-0.607-0.607-0.607h-2.32c-1.173 0-2.127 0.954-2.127 2.127s0.954 2.127 2.127 2.127z"></path>
<path fill="#363853" style="fill: var(--color2, #363853)" d="M24.143 20.529c0.335 0 0.607-0.272 0.607-0.607s-0.272-0.607-0.607-0.607c-0.335 0-0.607 0.272-0.607 0.607s0.272 0.607 0.607 0.607z"></path>
<path fill="#363853" style="fill: var(--color2, #363853)" d="M27.136 21.904c0.335 0 0.607-0.272 0.607-0.607s-0.272-0.607-0.607-0.607c-0.335 0-0.607 0.272-0.607 0.607s0.272 0.607 0.607 0.607z"></path>
<path fill="#363853" style="fill: var(--color2, #363853)" d="M28.915 24.007c0.335 0 0.607-0.272 0.607-0.607s-0.272-0.607-0.607-0.607c-0.335 0-0.607 0.272-0.607 0.607s0.272 0.607 0.607 0.607z"></path>
<path fill="#363853" style="fill: var(--color2, #363853)" d="M26.408 19.073c0.335 0 0.607-0.272 0.607-0.607s-0.272-0.607-0.607-0.607c-0.335 0-0.607 0.272-0.607 0.607s0.272 0.607 0.607 0.607z"></path>
<path fill="#363853" style="fill: var(--color2, #363853)" d="M24.386 24.412c0.335 0 0.607-0.272 0.607-0.607s-0.272-0.607-0.607-0.607c-0.335 0-0.607 0.272-0.607 0.607s0.272 0.607 0.607 0.607z"></path>
<path fill="#363853" style="fill: var(--color2, #363853)" d="M40.387 16.763h-1.721l0.851-1.758c1.079-0.215 1.895-1.169 1.895-2.31 0-1.17-0.858-2.144-1.978-2.325-1.238-2.23-3.656-3.904-6.589-4.573v-0.046c0-0.335-0.272-0.607-0.607-0.607-0.278 0-0.511 0.187-0.583 0.441-0.369-0.048-0.745-0.079-1.126-0.094-0.097-0.205-0.306-0.347-0.548-0.347s-0.45 0.142-0.548 0.347c-0.381 0.016-0.757 0.047-1.126 0.094-0.072-0.255-0.305-0.441-0.583-0.441-0.335 0-0.607 0.272-0.607 0.607v0.046c-2.933 0.668-5.351 2.343-6.589 4.573-1.12 0.181-1.978 1.155-1.978 2.325 0 0.068 0.003 0.136 0.009 0.203-2.801 0.26-5.317 1.431-7.205 3.186h-3.812c-0.26 0-0.492 0.117-0.65 0.3h-1.781c-0.292-0.737-1.016-1.258-1.842-1.258-1.092 0-1.98 0.888-1.98 1.98 0 0.093 0.007 0.186 0.020 0.276-0.763 0.275-1.309 1.006-1.309 1.863 0 0.38 0.108 0.746 0.306 1.059-0.198 0.313-0.306 0.678-0.306 1.059 0 1.092 0.888 1.98 1.98 1.98 0.826 0 1.55-0.521 1.842-1.258h1.604c0.074 0.27 0.277 0.494 0.551 0.587l1.902 0.646c-0.011 0.196-0.017 0.393-0.017 0.592 0 0.187 0.005 0.373 0.015 0.559-0.297 0.072-0.575 0.195-0.822 0.361-0.407-0.273-0.895-0.432-1.421-0.432-1.411 0-2.558 1.148-2.558 2.558 0 0.022 0.002 0.043 0.002 0.064h-0.71c-0.401 0-0.756 0.225-0.926 0.587s-0.119 0.779 0.135 1.088l1.82 2.211c0.195 0.237 0.484 0.373 0.791 0.373h25.656c0.335 0 0.607-0.272 0.607-0.607s-0.272-0.607-0.607-0.607h-25.567l-1.509-1.834h37.218l-1.509 1.834h-5.801c-0.335 0-0.607 0.272-0.607 0.607s0.272 0.607 0.607 0.607h5.89c0.307 0 0.596-0.136 0.791-0.374l1.82-2.211c0.254-0.309 0.306-0.726 0.135-1.089s-0.526-0.587-0.926-0.587h-0.601c0.596-1.032 0.82-2.254 0.603-3.456-0.045-0.249-0.24-0.444-0.489-0.489-1.643-0.297-3.328 0.228-4.506 1.407-0.072 0.072-0.141 0.147-0.208 0.222-0.348-0.188-0.744-0.297-1.164-0.306v-1.154h0.647c1.026 0 1.86-0.835 1.86-1.86v-0.814h3.859c0.565 0 1.025-0.46 1.025-1.025v-1.755c0-0.565-0.46-1.025-1.025-1.025zM5.92 27.018h-1.629c-0.001-0.021-0.002-0.043-0.002-0.064 0-0.742 0.603-1.345 1.345-1.345 0.211 0 0.41 0.049 0.588 0.137-0.194 0.36-0.304 0.771-0.304 1.208 0 0.022 0.002 0.043 0.002 0.064zM36.251 25.338c0.794-0.793 1.888-1.198 2.997-1.125 0.068 1.021-0.272 2.031-0.946 2.804h-1l0.829-0.829c0.237-0.237 0.237-0.621 0-0.858s-0.621-0.237-0.858 0l-0.86 0.86c-0.076-0.243-0.187-0.47-0.328-0.675 0.053-0.061 0.108-0.12 0.166-0.177zM24.003 8.416c0.918-0.615 1.979-1.076 3.114-1.367v0.624c0 0.335 0.272 0.607 0.607 0.607s0.607-0.272 0.607-0.607v-0.865c0.344-0.049 0.692-0.081 1.044-0.099v0.964c0 0.335 0.272 0.607 0.607 0.607s0.607-0.272 0.607-0.607v-0.964c0.351 0.018 0.7 0.050 1.043 0.099v0.865c0 0.335 0.272 0.607 0.607 0.607s0.607-0.272 0.607-0.607v-0.624c1.136 0.29 2.196 0.752 3.114 1.367 0.895 0.599 1.623 1.323 2.154 2.123-0.205 0.090-0.397 0.209-0.569 0.353-0.419-0.351-0.953-0.553-1.513-0.553s-1.094 0.202-1.513 0.553c-0.419-0.351-0.953-0.553-1.513-0.553s-1.094 0.202-1.513 0.553c-0.419-0.351-0.953-0.553-1.513-0.553s-1.094 0.202-1.513 0.553c-0.419-0.351-0.953-0.553-1.513-0.553s-1.094 0.202-1.513 0.553c-0.419-0.351-0.953-0.553-1.513-0.553s-1.094 0.202-1.513 0.553c-0.172-0.144-0.364-0.263-0.569-0.353 0.531-0.8 1.26-1.524 2.154-2.123zM20.905 11.553c0.405 0 0.783 0.219 0.988 0.571 0.109 0.187 0.308 0.302 0.525 0.302s0.416-0.115 0.525-0.302c0.204-0.353 0.583-0.571 0.988-0.571s0.784 0.219 0.988 0.571c0.109 0.187 0.308 0.302 0.525 0.302s0.416-0.115 0.525-0.302c0.204-0.352 0.583-0.571 0.988-0.571s0.783 0.219 0.988 0.571c0.109 0.187 0.308 0.302 0.525 0.302s0.416-0.115 0.525-0.302c0.204-0.352 0.583-0.571 0.988-0.571s0.783 0.219 0.988 0.571c0.108 0.187 0.308 0.302 0.525 0.302s0.416-0.115 0.525-0.302c0.204-0.352 0.583-0.571 0.988-0.571s0.783 0.219 0.988 0.571c0.109 0.187 0.308 0.302 0.525 0.302s0.416-0.115 0.525-0.302c0.204-0.352 0.583-0.571 0.988-0.571s0.783 0.219 0.988 0.571c0.108 0.187 0.308 0.302 0.525 0.302s0.416-0.115 0.525-0.302c0.204-0.352 0.583-0.571 0.988-0.571 0.63 0 1.142 0.512 1.142 1.142s-0.512 1.142-1.142 1.142c-0.405 0-0.784-0.219-0.988-0.571-0.109-0.187-0.308-0.302-0.525-0.302s-0.416 0.115-0.525 0.302c-0.205 0.353-0.583 0.571-0.988 0.571s-0.783-0.219-0.988-0.571c-0.109-0.187-0.308-0.302-0.525-0.302s-0.416 0.115-0.525 0.302c-0.204 0.353-0.583 0.571-0.988 0.571s-0.784-0.219-0.988-0.571c-0.109-0.187-0.308-0.302-0.525-0.302s-0.416 0.115-0.525 0.302c-0.204 0.353-0.583 0.571-0.988 0.571s-0.784-0.219-0.988-0.571c-0.109-0.187-0.308-0.302-0.525-0.302s-0.416 0.115-0.525 0.302c-0.205 0.353-0.583 0.571-0.988 0.571s-0.783-0.219-0.988-0.571c-0.109-0.187-0.308-0.302-0.525-0.302s-0.416 0.115-0.525 0.302c-0.119 0.206-0.299 0.366-0.507 0.464-1.425-0.568-2.992-0.883-4.637-0.887-0.006-0.048-0.011-0.098-0.011-0.148 0-0.63 0.512-1.142 1.142-1.142zM7.898 17.297h2.326c-0.239 0.298-0.463 0.606-0.67 0.926h-1.657v-0.926zM5.396 20.87h-2.048c-0.316 0-0.578 0.242-0.605 0.556-0.033 0.394-0.368 0.702-0.763 0.702-0.423 0-0.767-0.344-0.767-0.767 0-0.229 0.101-0.445 0.279-0.591 0.139-0.115 0.22-0.287 0.22-0.467s-0.081-0.352-0.22-0.467c-0.177-0.146-0.279-0.362-0.279-0.591 0-0.423 0.344-0.767 0.767-0.767 0.395 0 0.73 0.308 0.763 0.702 0.026 0.314 0.289 0.556 0.605 0.556h2.048v1.134h-0zM5.603 18.523h-1.781c-0.223-0.564-0.699-1-1.28-1.175-0.026-0.077-0.040-0.159-0.040-0.243 0-0.423 0.344-0.767 0.767-0.767 0.395 0 0.73 0.308 0.763 0.702 0.026 0.314 0.289 0.556 0.605 0.556h2.048v0.626h-0.432c-0.26 0-0.492 0.117-0.65 0.3zM9.819 27.018h-2.686c-0.001-0.021-0.002-0.043-0.002-0.064 0-0.742 0.603-1.345 1.345-1.345s1.345 0.603 1.345 1.345c0 0.022-0.001 0.043-0.002 0.064zM28.529 27.018h-2.112c-0.001-0.021-0.002-0.043-0.002-0.064 0-0.742 0.603-1.345 1.345-1.345 0.371 0 0.707 0.151 0.951 0.394-0.118 0.294-0.184 0.615-0.184 0.951-0 0.022 0.002 0.043 0.002 0.064zM27.76 24.395c-1.411 0-2.558 1.148-2.558 2.558 0 0.022 0.002 0.043 0.002 0.064h-14.171c0.001-0.022 0.002-0.043 0.002-0.064 0-1.198-0.828-2.206-1.942-2.483-0.011-0.187-0.018-0.374-0.018-0.563 0-0.062 0.001-0.123 0.002-0.185l6.204 2.107c0.418 0.142 0.845 0.212 1.269 0.212 0.8 0 1.585-0.25 2.263-0.735 1.037-0.743 1.631-1.9 1.631-3.176 0-0.456-0.078-0.903-0.232-1.33-0.114-0.315-0.462-0.478-0.777-0.364s-0.478 0.462-0.364 0.777c0.106 0.294 0.16 0.602 0.16 0.917 0 0.879-0.41 1.677-1.125 2.19s-1.602 0.644-2.435 0.361l-9.063-3.077v-2.167h9.929c0.304 0 0.604 0.051 0.891 0.152 0.316 0.111 0.662-0.056 0.773-0.372s-0.056-0.662-0.372-0.773c-0.416-0.146-0.851-0.22-1.292-0.22h-5.5c1.935-2.519 5.118-4.167 8.711-4.167 5.885 0 10.674 4.42 10.674 9.852 0 0.194-0.007 0.387-0.019 0.579-0.366 0.102-0.7 0.283-0.981 0.524-0.447-0.384-1.028-0.616-1.662-0.616zM32.427 27.018h-2.686c-0.001-0.021-0.002-0.043-0.002-0.064 0-0.742 0.603-1.345 1.345-1.345s1.345 0.603 1.345 1.345c0 0.022-0.001 0.043-0.002 0.064zM32.808 24.677c-0.097 0.050-0.191 0.104-0.28 0.165-0.27-0.185-0.577-0.319-0.907-0.39 0.009-0.181 0.015-0.363 0.015-0.545 0-0.224-0.009-0.445-0.024-0.666h1.196v1.435zM35.315 26.953c0 0.022-0.001 0.043-0.002 0.064h-1.673c0.001-0.022 0.002-0.043 0.002-0.064 0-0.43-0.107-0.835-0.295-1.191 0.186-0.098 0.398-0.154 0.623-0.154 0.742 0 1.345 0.603 1.345 1.345zM35.315 21.382c0 0.357-0.29 0.647-0.647 0.647h-3.206c-0.092-0.499-0.219-0.987-0.38-1.462h4.234v0.814zM40.199 19.354h-9.617c-0.233-0.478-0.502-0.939-0.803-1.378h2.574c0.335 0 0.607-0.272 0.607-0.607s-0.272-0.607-0.607-0.607h-3.535c-0.58-0.637-1.236-1.213-1.954-1.714 0.031 0.001 0.061 0.002 0.092 0.002 0.559 0 1.094-0.202 1.513-0.553 0.419 0.351 0.953 0.553 1.513 0.553s1.094-0.202 1.513-0.553c0.419 0.351 0.953 0.553 1.513 0.553s1.094-0.202 1.513-0.553c0.419 0.351 0.953 0.553 1.513 0.553s1.094-0.202 1.513-0.553c0.202 0.17 0.432 0.304 0.678 0.398l-0.903 1.867h-2.135c-0.335 0-0.607 0.272-0.607 0.607s0.272 0.607 0.607 0.607h5.015v1.378z"></path>
</symbol>
<symbol id="icon-burger" viewBox="0 0 36 32">
<path fill="#fff" style="fill: var(--color1, #fff)" d="M36.103 15.865c0-1.386-0.894-2.567-2.135-2.998-0.191-4.3-1.796-7.6-4.78-9.818-2.723-2.024-6.47-3.050-11.137-3.050s-8.414 1.026-11.137 3.050c-2.984 2.217-4.589 5.518-4.78 9.818-1.241 0.431-2.135 1.612-2.135 2.998 0 0.812 0.307 1.554 0.811 2.115-0.504 0.562-0.811 1.303-0.811 2.115 0 1.395 0.905 2.581 2.158 3.005 0.454 4.833 4.562 8.629 9.547 8.629h12.692c4.985 0 9.094-3.796 9.547-8.629 1.253-0.424 2.158-1.611 2.158-3.005 0-0.812-0.307-1.554-0.811-2.115 0.504-0.562 0.811-1.303 0.811-2.115zM18.051 2.115c6.066 0 13.252 1.87 13.787 10.577h-27.575c0.535-8.707 7.721-10.577 13.787-10.577zM3.173 14.808h29.756c0.583 0 1.058 0.474 1.058 1.058s-0.474 1.058-1.058 1.058h-29.756c-0.583 0-1.058-0.474-1.058-1.058s0.474-1.058 1.058-1.058zM24.397 29.615h-12.692c-3.759 0-6.878-2.763-7.398-6.346h0.981c0.707 0 0.931 0.241 1.376 0.72 0.547 0.589 1.296 1.396 2.926 1.396 1.641 0 2.371-0.815 2.903-1.41 0.421-0.47 0.632-0.706 1.327-0.706s0.907 0.236 1.327 0.706c0.533 0.595 1.262 1.41 2.903 1.41s2.371-0.815 2.903-1.41c0.421-0.47 0.632-0.706 1.327-0.706s0.907 0.236 1.327 0.706c0.533 0.595 1.262 1.41 2.903 1.41s2.371-0.815 2.903-1.41c0.421-0.47 0.632-0.706 1.327-0.706h1.052c-0.52 3.583-3.639 6.346-7.398 6.346zM32.929 21.154h-2.186c-1.641 0-2.371 0.815-2.903 1.41-0.421 0.47-0.632 0.706-1.327 0.706s-0.907-0.236-1.327-0.706c-0.533-0.595-1.262-1.41-2.903-1.41s-2.371 0.815-2.903 1.41c-0.421 0.47-0.632 0.706-1.327 0.706s-0.907-0.236-1.327-0.706c-0.533-0.595-1.262-1.41-2.903-1.41s-2.371 0.815-2.903 1.41c-0.421 0.47-0.632 0.706-1.327 0.706-0.707 0-0.931-0.241-1.376-0.72-0.547-0.589-1.296-1.396-2.926-1.396h-2.115c-0.583 0-1.058-0.474-1.058-1.058s0.474-1.058 1.058-1.058h29.756c0.583 0 1.058 0.474 1.058 1.058s-0.474 1.058-1.058 1.058z"></path>
<path fill="#fff" style="fill: var(--color1, #fff)" d="M11.705 10.577c0.584 0 1.058-0.474 1.058-1.058s-0.474-1.058-1.058-1.058c-0.584 0-1.058 0.474-1.058 1.058s0.474 1.058 1.058 1.058z"></path>
<path fill="#fff" style="fill: var(--color1, #fff)" d="M24.397 10.577c0.584 0 1.058-0.474 1.058-1.058s-0.474-1.058-1.058-1.058c-0.584 0-1.058 0.474-1.058 1.058s0.474 1.058 1.058 1.058z"></path>
<path fill="#fff" style="fill: var(--color1, #fff)" d="M20.167 8.462c0.584 0 1.058-0.474 1.058-1.058s-0.474-1.058-1.058-1.058c-0.584 0-1.058 0.474-1.058 1.058s0.474 1.058 1.058 1.058z"></path>
<path fill="#fff" style="fill: var(--color1, #fff)" d="M15.936 6.346c0.584 0 1.058-0.474 1.058-1.058s-0.474-1.058-1.058-1.058c-0.584 0-1.058 0.474-1.058 1.058s0.474 1.058 1.058 1.058z"></path>
</symbol>
<symbol id="icon-calling" viewBox="0 0 32 32">
<path stroke-linejoin="round" stroke-linecap="round" stroke-miterlimit="4" stroke-width="2" d="M19.137 3.333c4.935 0.548 8.833 4.441 9.387 9.376"></path>
<path stroke-linejoin="round" stroke-linecap="round" stroke-miterlimit="4" stroke-width="2" d="M19.137 8.057c2.361 0.459 4.207 2.305 4.667 4.667"></path>
<path stroke-linejoin="round" stroke-linecap="round" stroke-miterlimit="4" stroke-width="2" d="M14.709 16.63c5.319 5.317 6.525-0.834 9.912 2.55 3.265 3.264 5.143 3.918 1.005 8.053-0.518 0.416-3.81 5.426-15.379-6.14-11.57-11.568-6.564-14.863-6.147-15.381 4.146-4.147 4.79-2.259 8.055 1.005 3.385 3.386-2.764 4.596 2.555 9.913z"></path>
</symbol>
<symbol id="icon-cart" viewBox="0 0 34 32">
<path fill="none" stroke="#363853" style="stroke: var(--color2, #363853)" stroke-linejoin="round" stroke-linecap="round" stroke-miterlimit="4" stroke-width="2.4" d="M1.6 1.881l3.328 0.569 1.541 18.144c0.123 1.482 1.376 2.619 2.88 2.614h17.454c1.435 0.003 2.653-1.041 2.856-2.445l1.518-10.371c0.17-1.159-0.645-2.235-1.816-2.402-0.102-0.014-23.899-0.022-23.899-0.022"></path>
<path fill="none" stroke="#363853" style="stroke: var(--color2, #363853)" stroke-linejoin="round" stroke-linecap="round" stroke-miterlimit="4" stroke-width="2.4" d="M19.8 13.813h4.437"></path>
<path fill="#363853" style="fill: var(--color2, #363853); stroke: var(--color2, #363853)" stroke="#363853" stroke-linejoin="round" stroke-linecap="round" stroke-miterlimit="4" stroke-width="2.4" d="M8.647 28.691c0.482 0 0.87 0.386 0.87 0.861 0 0.476-0.389 0.862-0.87 0.862s-0.87-0.386-0.87-0.862c0-0.475 0.389-0.861 0.87-0.861z"></path>
<path fill="#363853" style="fill: var(--color2, #363853); stroke: var(--color2, #363853)" stroke="#363853" stroke-linejoin="round" stroke-linecap="round" stroke-miterlimit="4" stroke-width="2.4" d="M26.695 28.691c0.482 0 0.872 0.386 0.872 0.861 0 0.476-0.39 0.862-0.872 0.862s-0.87-0.386-0.87-0.862c0-0.475 0.389-0.861 0.87-0.861z"></path>
</symbol>
<symbol id="icon-dish" viewBox="0 0 32 32">
<path fill="#363853" style="fill: var(--color2, #363853)" d="M22.66 10.66l-0.342-1.114c-0.435-1.265-1.825-1.942-3.105-1.513-0.72 0.242-1.286 0.801-1.53 1.513l-0.342 1.114c-0.288 0.939-0.349 1.933-0.177 2.899 0.157 0.814 0.68 1.513 1.421 1.9l-0.383 8.473c-0.051 0.473 0.104 0.945 0.427 1.298 0.694 0.751 1.873 0.803 2.632 0.117 0.041-0.037 0.080-0.076 0.118-0.117 0.316-0.343 0.471-0.801 0.427-1.263l-0.386-8.509c0.74-0.387 1.262-1.086 1.419-1.899 0.172-0.967 0.112-1.96-0.177-2.899zM21.786 13.376c-0.116 0.585-0.537 1.065-1.107 1.259-0.216 0.080-0.355 0.289-0.345 0.517l0.405 8.899c0.019 0.175-0.040 0.349-0.16 0.478-0.321 0.314-0.838 0.314-1.16 0-0.126-0.14-0.184-0.327-0.157-0.512l0.402-8.864c0.010-0.228-0.129-0.437-0.345-0.517-0.57-0.195-0.991-0.675-1.107-1.259-0.143-0.803-0.092-1.627 0.147-2.407l0.342-1.114c0.265-0.708 1.060-1.070 1.777-0.808 0.379 0.138 0.677 0.434 0.817 0.808l0.342 1.114c0.239 0.78 0.289 1.604 0.147 2.407z"></path>
<path fill="#363853" style="fill: var(--color2, #363853)" d="M14.4 7.907c-0.295 0-0.533 0.236-0.533 0.527v4.526l-1.444 1.427c-0.107 0.105-0.164 0.25-0.156 0.399l0.467 9.225c0.011 0.199-0.062 0.393-0.202 0.537-0.292 0.291-0.767 0.293-1.062 0.005-0.002-0.002-0.003-0.003-0.005-0.005-0.14-0.144-0.213-0.338-0.202-0.537l0.47-9.225c0.008-0.149-0.049-0.294-0.156-0.399l-1.444-1.427v-4.526c0-0.291-0.239-0.527-0.533-0.527s-0.533 0.236-0.533 0.527v4.744c0 0.14 0.056 0.274 0.156 0.373l1.433 1.416-0.455 8.993c-0.048 0.982 0.718 1.817 1.712 1.865s1.839-0.71 1.887-1.692c0.003-0.058 0.003-0.116 0-0.173l-0.455-8.992 1.433-1.416c0.1-0.099 0.156-0.233 0.156-0.373v-4.744c0-0.291-0.239-0.527-0.533-0.527z"></path>
<path fill="#363853" style="fill: var(--color2, #363853)" d="M11.2 7.907c-0.295 0-0.533 0.236-0.533 0.527v4.217c0 0.291 0.239 0.527 0.533 0.527s0.533-0.236 0.533-0.527v-4.217c0-0.291-0.239-0.527-0.533-0.527z"></path>
<path fill="#363853" style="fill: var(--color2, #363853)" d="M12.8 7.907c-0.295 0-0.533 0.236-0.533 0.527v4.217c0 0.291 0.239 0.527 0.533 0.527s0.533-0.236 0.533-0.527v-4.217c0-0.291-0.239-0.527-0.533-0.527z"></path>
<path fill="#363853" style="fill: var(--color2, #363853)" d="M16 0c-8.837 0-16 7.080-16 15.814s7.163 15.814 16 15.814c8.837 0 16-7.080 16-15.814-0.010-8.73-7.168-15.804-16-15.814zM16 30.574c-8.248 0-14.933-6.608-14.933-14.76s6.686-14.76 14.933-14.76c8.248 0 14.933 6.608 14.933 14.76-0.009 8.148-6.69 14.751-14.933 14.76z"></path>
<path fill="#363853" style="fill: var(--color2, #363853)" d="M17.731 25.71c-0.029-0.29-0.289-0.502-0.583-0.474-0.007 0.001-0.014 0.001-0.021 0.002l0.002-0c-0.751 0.086-1.509 0.086-2.26 0-0.293-0.034-0.558 0.173-0.592 0.463s0.175 0.552 0.468 0.585c0.833 0.096 1.674 0.096 2.507 0 0.293-0.028 0.508-0.286 0.479-0.576z"></path>
<path fill="#363853" style="fill: var(--color2, #363853)" d="M24.16 9.022c-0.189-0.223-0.526-0.252-0.751-0.065-0.001 0.001-0.001 0.001-0.002 0.002-0.225 0.188-0.254 0.52-0.064 0.743 3.216 3.773 2.97 9.352-0.566 12.834-0.209 0.206-0.209 0.539-0.001 0.746s0.546 0.207 0.754 0.001c3.929-3.869 4.203-10.068 0.63-14.261z"></path>
<path fill="#363853" style="fill: var(--color2, #363853)" d="M12.426 6.968c-0 0-0.001-0.001-0.001-0.001s-0.001 0.001-0.002 0.001h0.003z"></path>
<path fill="#363853" style="fill: var(--color2, #363853)" d="M18.516 5.566c-2.084-0.494-4.27-0.361-6.278 0.381-0.276 0.102-0.415 0.407-0.312 0.679 0.078 0.205 0.277 0.341 0.499 0.342 0.064-0 0.127-0.012 0.187-0.034 1.808-0.668 3.776-0.788 5.653-0.343 0.286 0.068 0.575-0.106 0.644-0.388s-0.107-0.568-0.393-0.636z"></path>
<path fill="#363853" style="fill: var(--color2, #363853)" d="M9.199 22.509c-1.798-1.774-2.806-4.184-2.799-6.695-0.005-2.006 0.638-3.962 1.835-5.581 0.177-0.233 0.13-0.563-0.106-0.738s-0.57-0.128-0.747 0.105c-0.003 0.004-0.006 0.008-0.009 0.012-3.084 4.19-2.63 9.973 1.070 13.644 0.209 0.206 0.547 0.206 0.755 0s0.209-0.54 0-0.747z"></path>
</symbol>
<symbol id="icon-driver" viewBox="0 0 32 32">
<path fill="#0af" style="fill: var(--color3, #0af)" d="M6.134 23.030l0.384 0.913c0.271-0.111 0.552-0.193 0.841-0.245l-0.179-0.973c-0.358 0.064-0.709 0.166-1.045 0.304z"></path>
<path fill="#0af" style="fill: var(--color3, #0af)" d="M3.508 25.483l0.9 0.431c0.311-0.635 0.785-1.179 1.375-1.577l-0.564-0.816c-0.733 0.496-1.323 1.172-1.71 1.962z"></path>
<path fill="#0af" style="fill: var(--color3, #0af)" d="M31 25.205c0.001-0.851-0.317-1.672-0.891-2.306l-0.745 0.659c0.296 0.326 0.498 0.724 0.587 1.153h-3.45c-0.082 0-0.163 0.020-0.236 0.058s-0.134 0.094-0.18 0.162l-1.851 2.745h-1.232v-1.483c0.001-0.917 0.37-1.796 1.026-2.445s1.546-1.013 2.474-1.014h1c0.492-0.001 0.973 0.142 1.382 0.411l0.554-0.823c-0.432-0.284-0.922-0.469-1.436-0.542v-1.518c0-0.131-0.053-0.257-0.146-0.349s-0.221-0.145-0.354-0.145c-0.53-0.001-1.039-0.209-1.414-0.58s-0.586-0.873-0.586-1.397v-1.977h1.5c0.133 0 0.26-0.052 0.354-0.145s0.146-0.218 0.146-0.349v-3.459c0-0.131-0.053-0.257-0.146-0.349s-0.221-0.145-0.354-0.145h-0.882c-0.209 0-0.417 0.029-0.618 0.084v-0.578c0-0.112-0.039-0.221-0.11-0.309l-1.636-2.021c0.214-0.357 0.291-0.779 0.217-1.188s-0.295-0.778-0.622-1.039c-0.327-0.261-0.738-0.398-1.158-0.384s-0.821 0.176-1.13 0.457c-0.309 0.282-0.505 0.664-0.552 1.076s0.057 0.828 0.294 1.171c0.237 0.343 0.591 0.59 0.998 0.696s0.838 0.064 1.215-0.118l1.482 1.832v0.624l-2.198-0.724c-0.144-0.049-0.295-0.074-0.448-0.073h-4.124l-2.374-2.737c0.199-0.136 0.361-0.318 0.473-0.53s0.171-0.447 0.171-0.686v-0.189l0.724-0.358c0.063-0.031 0.119-0.076 0.164-0.13s0.077-0.117 0.096-0.185 0.022-0.138 0.010-0.208c-0.012-0.069-0.038-0.135-0.077-0.193l-0.821-1.218c0.114-0.022 0.217-0.082 0.291-0.171s0.114-0.2 0.114-0.314c-0.001-0.786-0.317-1.54-0.88-2.096s-1.325-0.869-2.12-0.869c-0.942 0-1.813 0.267-2.462 0.976-0.281 0.307-0.494 0.669-0.625 1.063s-0.177 0.81-0.136 1.222l0.107 1.057c0.045 0.456 0.265 0.877 0.616 1.177v9.332c-0 0.347 0.093 0.688 0.269 0.988h-0.769c-0.17-0-0.339 0.029-0.5 0.085v-6.51c-0-0.393-0.159-0.77-0.44-1.048s-0.662-0.434-1.060-0.435h-6c-0.398 0-0.779 0.157-1.060 0.435s-0.439 0.655-0.44 1.048v2.471h1v-0.988h7v4.942h-7v-2.965h-1v4.035c-0 0.231 0.082 0.456 0.232 0.633s0.359 0.298 0.589 0.339l4.679 0.841v1.16c-0.424 0.097-0.838 0.232-1.237 0.405h-2.763c-0.133 0-0.26 0.052-0.354 0.145s-0.146 0.218-0.146 0.349v2.346c-0.653 1.084-0.999 2.323-1 3.585 0 0.131 0.053 0.257 0.146 0.349s0.221 0.145 0.354 0.145h2.292c0.299 0.73 0.811 1.355 1.472 1.795s1.439 0.675 2.236 0.675 1.575-0.235 2.236-0.675c0.661-0.44 1.173-1.066 1.472-1.795h8.407c0.348-0 0.693-0.072 1.011-0.211s0.604-0.343 0.839-0.597l0.535-0.582v1.39c0 0.131 0.053 0.257 0.146 0.349s0.221 0.145 0.354 0.145h1.036c0.44 0.754 1.12 1.343 1.933 1.676s1.715 0.391 2.566 0.166c0.851-0.225 1.602-0.722 2.138-1.412s0.827-1.536 0.827-2.407c0-0.378-0.055-0.755-0.163-1.118 0.051-0.046 0.092-0.102 0.12-0.165s0.042-0.131 0.042-0.199zM21.5 7.661c0-0.147 0.044-0.29 0.126-0.412s0.2-0.217 0.337-0.273 0.288-0.071 0.433-0.042c0.145 0.029 0.279 0.099 0.384 0.203s0.176 0.236 0.205 0.38c0.029 0.144 0.014 0.293-0.043 0.428s-0.153 0.251-0.276 0.333c-0.123 0.081-0.268 0.125-0.417 0.125-0.199-0-0.389-0.078-0.53-0.217s-0.22-0.327-0.22-0.524zM14.347 25.205c-0.49-0.001-0.959-0.193-1.305-0.535s-0.541-0.806-0.542-1.29c0-0.485 0.124-0.939 0.451-1.312 0.292-0.332 0.694-0.549 1.134-0.612 0.531-0.075 1.017-0.337 1.369-0.737s0.545-0.913 0.546-1.444c0-0.065-0.013-0.129-0.038-0.189s-0.062-0.114-0.109-0.16c0.085-0.176 0.134-0.366 0.144-0.561s-0.018-0.389-0.084-0.573h1.358l-2.194 5.638c-0.053 0.136-0.079 0.28-0.078 0.426v1.349h-0.653zM16 24.216h2.5c0.107 0 0.212 0.034 0.298 0.098s0.149 0.152 0.18 0.253 0.028 0.21-0.008 0.31c-0.036 0.1-0.104 0.185-0.193 0.244-0.126 0.055-0.261 0.083-0.399 0.083h-2.379v-0.988zM19.88 24.13c-0.099-0.23-0.256-0.431-0.455-0.586s-0.434-0.256-0.684-0.297l2.071-4.927c0.184-0.438 0.256-0.914 0.209-1.386s-0.211-0.925-0.477-1.32c-0.266-0.394-0.627-0.718-1.050-0.941s-0.895-0.341-1.375-0.341h-2.119v-0.784l0.146 0.145c0.046 0.046 0.102 0.082 0.162 0.107s0.126 0.038 0.191 0.038h5.086c-0.080 0.224-0.105 0.463-0.072 0.698s0.122 0.459 0.261 0.652c0.139 0.194 0.322 0.352 0.535 0.461s0.45 0.166 0.69 0.166h0.001c-0.326 0.427-0.502 0.948-0.501 1.483v3.834c-0.001 0.262-0.106 0.513-0.293 0.699l-2.327 2.3zM23 14.826c-0.099 0-0.196-0.029-0.278-0.083s-0.146-0.131-0.184-0.222c-0.038-0.090-0.048-0.19-0.028-0.286s0.067-0.184 0.137-0.253c0.070-0.069 0.159-0.116 0.256-0.135s0.197-0.009 0.289 0.028c0.091 0.037 0.169 0.101 0.224 0.182s0.084 0.177 0.084 0.275c-0 0.131-0.053 0.257-0.147 0.349s-0.221 0.145-0.353 0.145zM26.5 12.355v2.471h-1v-2.317c0.19-0.101 0.402-0.153 0.618-0.154h0.382zM24.5 14.332c0-0.237-0.057-0.471-0.168-0.682s-0.27-0.392-0.466-0.529-0.422-0.225-0.66-0.258c-0.238-0.033-0.48-0.008-0.706 0.071v-0.882l2 0.659v1.621zM17.5 11.861h4v0.988h-4.793l-2.854-2.82-0.707 0.699 1.854 1.832v1.772h-3v-5.93h2.27l2.85 3.287c0.047 0.054 0.105 0.098 0.171 0.127s0.137 0.045 0.209 0.045zM11.78 2.628c0.457-0.499 1.064-0.65 1.72-0.65 0.443 0.001 0.874 0.146 1.224 0.415s0.601 0.644 0.712 1.068h-1.937c-0.133 0-0.26 0.052-0.354 0.145s-0.146 0.218-0.146 0.349v1.174c-0.001 0.206-0.081 0.403-0.225 0.552s-0.339 0.237-0.547 0.248c-0.208 0.010-0.411-0.059-0.569-0.192s-0.258-0.322-0.279-0.527l-0.107-1.057c-0.029-0.275 0.001-0.553 0.088-0.815s0.23-0.504 0.419-0.708zM12.187 6.919c0.481-0 0.941-0.189 1.281-0.525s0.531-0.791 0.531-1.266v-0.68h1c0 0.098 0.029 0.193 0.084 0.274l0.686 1.017-0.494 0.244c-0.083 0.041-0.153 0.104-0.201 0.182s-0.075 0.168-0.075 0.26v0.494c-0 0.131-0.053 0.257-0.147 0.349s-0.221 0.145-0.353 0.145h-2.5v-0.504c0.062 0.006 0.125 0.010 0.187 0.010zM12 15.815v-0.494h6.119c0.315 0 0.626 0.077 0.904 0.224s0.515 0.359 0.69 0.619c0.175 0.259 0.283 0.557 0.313 0.867s-0.017 0.623-0.137 0.911l-2.222 5.287h-1.438l2.239-5.753c0.029-0.075 0.039-0.156 0.030-0.235s-0.038-0.156-0.084-0.222c-0.046-0.066-0.107-0.12-0.179-0.158s-0.152-0.057-0.233-0.057h-5c-0.265-0-0.519-0.105-0.707-0.29s-0.293-0.437-0.293-0.699zM10.5 17.792h4c0.133 0 0.26 0.052 0.354 0.145s0.146 0.218 0.146 0.349c0 0.131-0.053 0.257-0.146 0.349s-0.221 0.145-0.354 0.145h-4c-0.133 0-0.26-0.052-0.354-0.145s-0.146-0.218-0.146-0.349c0-0.131 0.053-0.257 0.146-0.349s0.221-0.145 0.354-0.145zM2 10.873v-0.494c0-0.131 0.053-0.257 0.147-0.349s0.221-0.145 0.353-0.145h6c0.133 0 0.26 0.052 0.353 0.145s0.146 0.218 0.147 0.349v0.494h-7zM2 17.792h7v0.988h-1.955l-5.045-0.907v-0.082zM3.618 22.239c-0.217 0.174-0.423 0.361-0.618 0.559v-0.559h0.618zM7.5 29.652c-0.526-0.002-1.042-0.14-1.498-0.4s-0.835-0.633-1.099-1.082h1.276c0.365 0.318 0.835 0.494 1.322 0.494s0.957-0.176 1.322-0.494h1.276c-0.265 0.449-0.644 0.822-1.1 1.082s-0.972 0.398-1.498 0.4zM20.725 26.696c-0.141 0.153-0.312 0.275-0.503 0.358s-0.398 0.127-0.607 0.127h-17.594c0.108-1.29 0.633-2.512 1.499-3.483s2.025-1.642 3.306-1.91c0.129-0.028 0.261-0.042 0.393-0.042h3.281v-0.988h-3v-0.988h7.394c-0.085 0.188-0.216 0.352-0.383 0.475s-0.361 0.204-0.568 0.233c-0.678 0.096-1.299 0.431-1.748 0.942-0.484 0.551-0.696 1.24-0.696 1.96-0 0.67 0.242 1.317 0.683 1.825h-4.183v0.988h10.379c0.53-0.004 1.037-0.211 1.414-0.579l3.121-3.085c0.374-0.372 0.584-0.874 0.586-1.398v-3.834c0-0.307 0.097-0.605 0.276-0.856s0.432-0.44 0.724-0.542v1.892c0.001 0.701 0.252 1.378 0.71 1.913s1.092 0.893 1.79 1.011v1.030c-0.31 0-0.628-0.019-0.937 0.021-0.935 0.092-1.818 0.47-2.526 1.082s-1.203 1.427-1.419 2.331l-1.394 1.517zM26.768 25.699h0.025l0.603 0.597c0.105 0.104 0.164 0.245 0.164 0.392 0 0.11-0.033 0.217-0.095 0.308s-0.149 0.162-0.252 0.204c-0.102 0.042-0.215 0.053-0.324 0.032s-0.209-0.074-0.287-0.152l-0.46-0.455 0.624-0.925zM27 29.652c-0.433-0.001-0.861-0.095-1.255-0.274s-0.743-0.44-1.025-0.765c0.079-0.038 0.147-0.096 0.196-0.169l0.433-0.642c0.241 0.349 0.588 0.613 0.992 0.752s0.841 0.147 1.25 0.023c0.408-0.125 0.766-0.375 1.019-0.715s0.39-0.751 0.39-1.174c0.001-0.293-0.065-0.582-0.193-0.846-0.023-0.049-0.049-0.096-0.076-0.142h1.098c0.16 0.447 0.208 0.926 0.142 1.396s-0.245 0.917-0.522 1.304c-0.277 0.387-0.644 0.703-1.070 0.921s-0.899 0.332-1.379 0.332z"></path>
<path fill="#0af" style="fill: var(--color3, #0af)" d="M4 12.849h-1v2.965h1v-2.965z"></path>
</symbol>
<symbol id="icon-envelope" viewBox="0 0 32 32">
<path stroke-linejoin="round" stroke-linecap="round" stroke-miterlimit="4" stroke-width="2" d="M23.87 11.801l-5.924 4.817c-1.119 0.888-2.694 0.888-3.813 0l-5.974-4.817"></path>
<path stroke-linejoin="round" stroke-linecap="round" stroke-miterlimit="4" stroke-width="2" d="M22.545 28c4.055 0.011 6.788-3.321 6.788-7.415v-9.158c0-4.095-2.733-7.427-6.788-7.427h-13.090c-4.055 0-6.788 3.332-6.788 7.427v9.158c0 4.095 2.733 7.427 6.788 7.415h13.090z"></path>
</symbol>
<symbol id="icon-facebook" viewBox="0 0 15 32">
<path d="M3.881 31.278v-14.677h-3.881v-5.284h3.881v-4.513c0-3.547 2.292-6.804 7.575-6.804 2.139 0 3.72 0.205 3.72 0.205l-0.125 4.935c0 0-1.613-0.016-3.373-0.016-1.905 0-2.21 0.878-2.21 2.335v3.858h5.734l-0.249 5.284h-5.485v14.677h-5.587z"></path>
</symbol>
<symbol id="icon-insta" viewBox="0 0 32 32">
<path d="M15.596 10.398c-2.865 0-5.202 2.338-5.202 5.202s2.338 5.202 5.202 5.202 5.202-2.338 5.202-5.202c0-2.865-2.338-5.202-5.202-5.202zM31.199 15.6c0-2.154 0.020-4.289-0.101-6.439-0.121-2.498-0.691-4.714-2.517-6.541-1.83-1.83-4.043-2.396-6.541-2.517-2.154-0.121-4.289-0.101-6.439-0.101-2.154 0-4.289-0.019-6.439 0.101-2.498 0.121-4.714 0.691-6.541 2.517-1.83 1.83-2.396 4.043-2.517 6.541-0.121 2.154-0.101 4.289-0.101 6.439s-0.019 4.289 0.101 6.439c0.121 2.498 0.691 4.714 2.517 6.541 1.83 1.83 4.043 2.396 6.541 2.517 2.154 0.121 4.289 0.101 6.439 0.101 2.154 0 4.289 0.020 6.439-0.101 2.498-0.121 4.714-0.691 6.541-2.517 1.83-1.83 2.396-4.043 2.517-6.541 0.125-2.15 0.101-4.285 0.101-6.439zM15.596 23.604c-4.429 0-8.004-3.575-8.004-8.004s3.575-8.004 8.004-8.004 8.004 3.575 8.004 8.004c0 4.429-3.575 8.004-8.004 8.004zM23.928 9.137c-1.034 0-1.869-0.835-1.869-1.869s0.835-1.869 1.869-1.869c1.034 0 1.869 0.835 1.869 1.869 0 0.246-0.048 0.489-0.142 0.716s-0.232 0.433-0.405 0.607c-0.174 0.174-0.38 0.311-0.607 0.405s-0.47 0.142-0.716 0.142z"></path>
</symbol>
<symbol id="icon-location" viewBox="0 0 32 32">
<path stroke-linejoin="round" stroke-linecap="round" stroke-miterlimit="4" stroke-width="2" d="M19.333 14.001c0-1.842-1.492-3.334-3.333-3.334-1.842 0-3.334 1.492-3.334 3.334 0 1.84 1.492 3.333 3.334 3.333 1.84 0 3.333-1.492 3.333-3.333z"></path>
<path stroke-linejoin="round" stroke-linecap="round" stroke-miterlimit="4" stroke-width="2" d="M15.999 28c-1.598 0-9.999-6.802-9.999-13.916 0-5.569 4.476-10.084 9.999-10.084s10.001 4.516 10.001 10.084c0 7.113-8.403 13.916-10.001 13.916z"></path>
</symbol>
<symbol id="icon-pizza" viewBox="0 0 33 32">
<path fill="#363853" style="fill: var(--color2, #363853)" d="M31.897 31.82c-0.171 0.169-0.423 0.225-0.649 0.144l-25.959-9.256c-0.902 0.552-2.046 0.681-3.095 0.246-1.742-0.721-2.572-2.725-1.85-4.467 1.701-4.107 4.157-7.783 7.301-10.926s6.819-5.599 10.926-7.301c0.426-0.177 0.869-0.26 1.304-0.26 1.342 0 2.618 0.795 3.163 2.111 0.366 0.885 0.332 1.837-0.019 2.655l9.031 26.407c0.078 0.227 0.019 0.478-0.152 0.647zM9.219 22.782l2.751 0.981c0.323-0.344 0.48-0.818 0.417-1.297-0.056-0.422-0.272-0.797-0.61-1.056s-0.756-0.371-1.178-0.316c-0.422 0.056-0.797 0.272-1.056 0.61-0.239 0.311-0.352 0.691-0.325 1.078zM21.882 2.589c-0.458-1.105-1.729-1.631-2.834-1.174-8.002 3.315-14.235 9.547-17.55 17.55-0.222 0.535-0.222 1.125 0 1.66s0.639 0.952 1.174 1.174 1.125 0.222 1.66 0c0.535-0.222 0.952-0.638 1.174-1.174 1.419-3.425 3.468-6.492 6.089-9.113s5.688-4.67 9.113-6.089c1.105-0.458 1.631-1.729 1.174-2.833zM27.434 21.542c-0.057 0.001-0.113 0.005-0.17 0.012-0.422 0.056-0.797 0.272-1.056 0.61s-0.371 0.756-0.316 1.178c0.115 0.871 0.916 1.486 1.788 1.372 0.269-0.035 0.521-0.14 0.736-0.298l-0.983-2.873zM28.832 25.63c-0.305 0.166-0.639 0.276-0.988 0.322-1.554 0.205-2.985-0.893-3.19-2.448-0.099-0.753 0.101-1.499 0.563-2.102 0.445-0.58 1.083-0.959 1.802-1.075l-1.242-3.632-1.429 1.096c-0.274 0.21-0.666 0.158-0.876-0.115s-0.158-0.666 0.115-0.876l1.763-1.353-3.231-9.447c-0.271 0.236-0.583 0.433-0.933 0.578-6.624 2.744-11.783 7.902-14.526 14.526-0.095 0.23-0.214 0.444-0.351 0.641l1.674 0.597c0.058-0.504 0.252-0.985 0.569-1.398 0.462-0.603 1.132-0.989 1.884-1.088 0.126-0.017 0.252-0.025 0.377-0.025 0.622 0 1.223 0.203 1.725 0.588 0.603 0.462 0.989 1.131 1.088 1.884 0.089 0.676-0.069 1.345-0.423 1.9l7.769 2.77 0.294-0.711c0.1-0.241 0.332-0.386 0.578-0.386 0.080 0 0.161 0.015 0.239 0.048 0.319 0.132 0.47 0.498 0.338 0.817l-0.27 0.653 8.295 2.958-1.615-4.721z"></path>
<path fill="#363853" style="fill: var(--color2, #363853)" d="M6.832 15.233c-0.002 0.003-0.007 0.011-0.009 0.014-0.191 0.287-0.579 0.364-0.866 0.173s-0.364-0.578-0.175-0.865c0.12-0.184 0.32-0.284 0.524-0.284 0.116 0 0.233 0.032 0.337 0.099 0.29 0.187 0.374 0.573 0.188 0.864z"></path>
<path fill="#363853" style="fill: var(--color2, #363853)" d="M5.881 16.785c-0.609 1.068-1.157 2.186-1.627 3.322-0.132 0.319-0.498 0.47-0.817 0.338s-0.47-0.498-0.338-0.817c0.491-1.184 1.061-2.349 1.696-3.463 0.115-0.202 0.326-0.316 0.543-0.316 0.105 0 0.211 0.027 0.309 0.082 0.3 0.171 0.404 0.553 0.233 0.853z"></path>
<path fill="#363853" style="fill: var(--color2, #363853)" d="M19.64 24.001c-0.124 0.016-0.25 0.025-0.374 0.025-1.42 0-2.63-1.063-2.816-2.472-0.205-1.554 0.893-2.985 2.448-3.19 0.124-0.016 0.25-0.025 0.374-0.025 1.42 0 2.63 1.063 2.816 2.472 0.205 1.554-0.893 2.985-2.448 3.19zM20.849 20.974c-0.104-0.79-0.782-1.385-1.577-1.385-0.070 0-0.141 0.005-0.211 0.014-0.871 0.115-1.486 0.916-1.371 1.787 0.104 0.79 0.782 1.385 1.577 1.385 0.070 0 0.141-0.005 0.211-0.014 0.871-0.115 1.486-0.916 1.372-1.787z"></path>
<path fill="#363853" style="fill: var(--color2, #363853)" d="M19.478 16.227c-0.124 0.016-0.25 0.025-0.374 0.025-1.42 0-2.63-1.063-2.816-2.472-0.099-0.753 0.101-1.499 0.563-2.102s1.131-0.989 1.884-1.088c0.124-0.016 0.25-0.024 0.374-0.024 1.42 0 2.63 1.063 2.816 2.472 0.205 1.554-0.893 2.985-2.447 3.19zM20.686 13.2c-0.104-0.79-0.782-1.385-1.577-1.385-0.070 0-0.141 0.005-0.211 0.014-0.422 0.056-0.797 0.272-1.056 0.61s-0.371 0.756-0.316 1.178c0.104 0.79 0.782 1.385 1.577 1.385 0.070 0 0.141-0.005 0.211-0.014 0.871-0.115 1.486-0.916 1.372-1.787z"></path>
<path fill="#363853" style="fill: var(--color2, #363853)" d="M15.355 18.816l-1.921 0.253c-0.342 0.045-0.656-0.196-0.701-0.538s0.196-0.656 0.538-0.701l1.921-0.253c0.028-0.004 0.055-0.005 0.082-0.005 0.309 0 0.577 0.229 0.619 0.543 0.045 0.342-0.196 0.656-0.538 0.701z"></path>
<path fill="#363853" style="fill: var(--color2, #363853)" d="M14.381 14.204l-0.17 1.289c-0.045 0.342-0.359 0.583-0.701 0.538s-0.583-0.359-0.538-0.701l0.17-1.289c0.041-0.315 0.31-0.543 0.619-0.543 0.027 0 0.055 0.002 0.082 0.005 0.342 0.045 0.583 0.359 0.538 0.701z"></path>
</symbol>
<symbol id="icon-restaurant" viewBox="0 0 32 32">
<path fill="#f22" style="fill: var(--color4, #f22)" d="M30.5 26.5h-3.5v-10.044c0.309-0.064 0.601-0.194 0.855-0.381s0.464-0.428 0.615-0.705c0.151-0.277 0.241-0.584 0.262-0.899s-0.027-0.631-0.14-0.925l-1.591-4.138v-7.907c0-0.066-0.013-0.131-0.038-0.191s-0.062-0.116-0.108-0.162c-0.046-0.046-0.102-0.083-0.162-0.108s-0.126-0.038-0.191-0.038h-21c-0.066-0-0.131 0.013-0.191 0.038s-0.116 0.062-0.162 0.108c-0.046 0.046-0.083 0.102-0.108 0.162s-0.038 0.126-0.038 0.191v7.907l-1.591 4.138c-0.113 0.295-0.161 0.61-0.14 0.925s0.11 0.622 0.262 0.899 0.361 0.518 0.615 0.705c0.254 0.188 0.545 0.318 0.855 0.381v10.044h-3.5c-0.066 0-0.131 0.013-0.191 0.038s-0.116 0.062-0.162 0.108-0.083 0.102-0.108 0.162c-0.025 0.061-0.038 0.126-0.038 0.191v3.5c-0 0.066 0.013 0.131 0.038 0.191s0.062 0.116 0.108 0.162c0.046 0.047 0.102 0.083 0.162 0.108s0.126 0.038 0.191 0.038h29c0.066 0 0.131-0.013 0.191-0.038s0.116-0.062 0.162-0.108c0.047-0.046 0.083-0.102 0.108-0.162s0.038-0.126 0.038-0.191v-3.5c0-0.066-0.013-0.131-0.038-0.191s-0.062-0.116-0.108-0.162c-0.046-0.046-0.102-0.083-0.162-0.108s-0.126-0.038-0.191-0.038zM25 26.5v-10.664c0.274 0.284 0.619 0.487 1 0.589v10.075h-1zM21 27v3h-2v-3.5h1c0.133 0 0.26-0.053 0.354-0.146s0.146-0.221 0.146-0.354v-1.5c0-0.133-0.053-0.26-0.146-0.354s-0.221-0.146-0.354-0.146h-3c-0.133 0-0.26 0.053-0.354 0.146s-0.146 0.221-0.147 0.354v1.5c0 0.133 0.053 0.26 0.147 0.354s0.221 0.146 0.354 0.146h1v3.5h-2v-3c0-0.066-0.013-0.131-0.038-0.191s-0.062-0.116-0.108-0.162c-0.046-0.046-0.102-0.083-0.162-0.108s-0.126-0.038-0.191-0.038h-1v-1.5c0-0.066-0.013-0.131-0.038-0.191s-0.062-0.116-0.108-0.162-0.102-0.083-0.162-0.108c-0.061-0.025-0.126-0.038-0.191-0.038h-1v-8.046c0.485-0.1 0.921-0.363 1.236-0.745 0.031 0.038 0.063 0.075 0.097 0.111 0.202 0.216 0.447 0.387 0.719 0.504s0.564 0.177 0.86 0.175h0.176c0.296 0.001 0.589-0.058 0.86-0.175s0.516-0.288 0.719-0.504c0.034-0.036 0.067-0.073 0.098-0.111 0.072 0.087 0.151 0.168 0.236 0.243v1.547c-0.663 0.001-1.298 0.264-1.767 0.733s-0.732 1.104-0.733 1.767c0 0.066 0.013 0.131 0.038 0.191s0.062 0.116 0.108 0.162 0.102 0.083 0.162 0.108c0.061 0.025 0.126 0.038 0.191 0.038h5c0.066 0 0.131-0.013 0.191-0.038s0.116-0.062 0.162-0.108 0.083-0.102 0.108-0.162c0.025-0.061 0.038-0.126 0.038-0.191-0.001-0.663-0.264-1.298-0.733-1.767s-1.104-0.732-1.767-0.733v-1.046c0.145 0.030 0.293 0.046 0.442 0.046h0.156c0.316 0 0.627-0.068 0.914-0.201s0.54-0.326 0.744-0.567c0.013-0.015 0.026-0.031 0.037-0.046 0.204 0.255 0.462 0.46 0.756 0.601s0.616 0.214 0.942 0.213h0.097c0.314 0.001 0.625-0.067 0.911-0.197v8.197h-1c-0.066 0-0.131 0.013-0.191 0.038s-0.116 0.062-0.162 0.108-0.083 0.102-0.108 0.162c-0.025 0.061-0.038 0.126-0.038 0.191v1.5h-1c-0.066 0-0.131 0.013-0.191 0.038s-0.116 0.062-0.162 0.108c-0.047 0.046-0.083 0.102-0.108 0.162s-0.038 0.126-0.038 0.191zM17.5 25.5v-0.5h2v0.5h-2zM7.777 14.017l1.104-4.017h2.029l-0.744 4.517c-0.045 0.275-0.186 0.525-0.398 0.705s-0.482 0.279-0.761 0.278h-0.097c-0.181-0-0.359-0.042-0.52-0.122s-0.303-0.196-0.413-0.34c-0.11-0.143-0.185-0.31-0.219-0.487s-0.028-0.36 0.019-0.534zM8 16.302c0.286 0.131 0.596 0.198 0.911 0.197h0.097c0.326 0.001 0.648-0.072 0.942-0.213s0.553-0.346 0.756-0.601c0.012 0.016 0.024 0.031 0.037 0.046 0.322 0.38 0.766 0.638 1.256 0.73v2.538h-4v-2.697zM12.402 15.5c-0.17 0-0.339-0.037-0.494-0.109s-0.292-0.176-0.402-0.306c-0.11-0.13-0.191-0.282-0.236-0.447s-0.055-0.336-0.027-0.505l0.681-4.134h2.048l-0.241 4.39c-0.016 0.3-0.147 0.582-0.365 0.788s-0.507 0.322-0.807 0.322h-0.156zM16.941 15.133c-0.109 0.116-0.241 0.209-0.388 0.272s-0.305 0.095-0.464 0.095h-0.176c-0.159-0-0.317-0.033-0.464-0.095s-0.278-0.155-0.388-0.271c-0.11-0.116-0.195-0.252-0.25-0.402s-0.079-0.309-0.071-0.468l0.234-4.264h2.054l0.234 4.261v0.003c0.009 0.159-0.015 0.318-0.070 0.468s-0.14 0.286-0.25 0.401zM18.269 14.39l-0.241-4.39h2.048l0.681 4.134c0.028 0.168 0.019 0.34-0.027 0.505s-0.126 0.317-0.236 0.447c-0.11 0.13-0.248 0.234-0.402 0.306s-0.323 0.109-0.494 0.109h-0.156c-0.3-0-0.589-0.115-0.807-0.322s-0.349-0.489-0.365-0.788v0zM19 18.5c0.31 0 0.613 0.097 0.866 0.276s0.445 0.432 0.549 0.724h-3.829c0.104-0.292 0.295-0.545 0.549-0.724s0.556-0.275 0.866-0.276h1zM24.023 15.038c-0.109 0.144-0.25 0.261-0.412 0.341s-0.341 0.122-0.521 0.121h-0.097c-0.279 0.001-0.548-0.098-0.761-0.278s-0.354-0.43-0.398-0.705l-0.744-4.517h2.029l1.103 4.014c0 0.001 0.001 0.002 0.001 0.002 0.048 0.174 0.055 0.357 0.020 0.534s-0.11 0.344-0.22 0.487zM23.5 25.5h0.5v1h-0.5v-1zM27.658 13.904c0.068 0.178 0.093 0.37 0.070 0.559s-0.090 0.37-0.198 0.528c-0.108 0.157-0.253 0.286-0.421 0.374s-0.357 0.135-0.547 0.135c-0.257-0.001-0.507-0.085-0.711-0.241s-0.352-0.374-0.421-0.622l-1.274-4.637h2.001l1.501 3.904zM6 2h20v7h-20v-7zM4.47 14.991c-0.109-0.157-0.178-0.338-0.2-0.527s0.003-0.382 0.072-0.56l1.501-3.904h2.001l-1.274 4.637c-0.069 0.248-0.217 0.466-0.421 0.622s-0.454 0.24-0.711 0.241c-0.191 0.001-0.379-0.044-0.548-0.133s-0.313-0.218-0.42-0.376zM6 16.425c0.381-0.102 0.726-0.306 1-0.589v10.664h-1v-10.075zM10 30h-8v-2.5h8v2.5zM10.5 26.5h-2.5v-6.5h4v10h-1v-3c0-0.066-0.013-0.131-0.038-0.191s-0.062-0.116-0.108-0.162c-0.046-0.046-0.102-0.083-0.162-0.108s-0.126-0.038-0.191-0.038zM13 25.5h0.5v1.5c-0 0.066 0.013 0.131 0.038 0.191s0.062 0.116 0.108 0.162 0.102 0.083 0.162 0.108c0.061 0.025 0.126 0.038 0.191 0.038h1v2.5h-2v-4.5zM30 30h-8v-2.5h8v2.5z"></path>
<path fill="#f22" style="fill: var(--color4, #f22)" d="M19.5 6h-0.543c-0.105-0.614-0.398-1.18-0.838-1.62s-1.006-0.733-1.62-0.838v-0.542c0-0.133-0.053-0.26-0.146-0.354s-0.221-0.146-0.354-0.146-0.26 0.053-0.354 0.146c-0.094 0.094-0.146 0.221-0.146 0.354v0.542c-0.614 0.105-1.18 0.397-1.62 0.838s-0.733 1.006-0.838 1.62h-0.543c-0.133 0-0.26 0.053-0.354 0.146s-0.146 0.221-0.146 0.354c0.001 0.53 0.211 1.039 0.586 1.414s0.883 0.586 1.414 0.586h4c0.53-0.001 1.039-0.211 1.414-0.586s0.586-0.883 0.586-1.414c0-0.133-0.053-0.26-0.146-0.354s-0.221-0.146-0.354-0.146zM16 4.5c0.443 0.001 0.874 0.148 1.224 0.42s0.601 0.651 0.712 1.080h-3.873c0.111-0.429 0.362-0.809 0.712-1.080s0.781-0.419 1.224-0.42zM18 7.5h-4c-0.176-0-0.348-0.046-0.5-0.134s-0.278-0.214-0.366-0.366h5.732c-0.088 0.152-0.214 0.278-0.366 0.366s-0.324 0.134-0.5 0.134z"></path>
<path fill="#f22" style="fill: var(--color4, #f22)" d="M12.277 4.916c0.068-0.046 0.125-0.108 0.163-0.18s0.059-0.154 0.059-0.236v-1.5h-1v1.214c-0.159 0.081-0.327 0.142-0.5 0.183v-1.397h-1v1.397c-0.173-0.040-0.341-0.102-0.5-0.183v-1.214h-1v1.5c0 0.082 0.020 0.163 0.059 0.236s0.095 0.134 0.164 0.18c0.385 0.257 0.821 0.427 1.277 0.5v3.084h1v-3.084c0.457-0.073 0.893-0.243 1.277-0.5z"></path>
<path fill="#f22" style="fill: var(--color4, #f22)" d="M21.5 2.5c-0.487 0-0.957 0.178-1.322 0.499s-0.601 0.766-0.662 1.249c-0.061 0.483 0.056 0.972 0.329 1.375s0.684 0.692 1.155 0.814v2.063h1v-2.063c0.471-0.122 0.882-0.411 1.155-0.814s0.39-0.892 0.329-1.375c-0.061-0.483-0.297-0.927-0.662-1.249s-0.835-0.499-1.322-0.499zM21.5 5.5c-0.198 0-0.391-0.059-0.556-0.169s-0.293-0.266-0.368-0.449c-0.076-0.183-0.096-0.384-0.057-0.578s0.134-0.372 0.274-0.512c0.14-0.14 0.318-0.235 0.512-0.274s0.395-0.019 0.578 0.057c0.183 0.076 0.339 0.204 0.449 0.368s0.169 0.358 0.169 0.556c-0 0.265-0.106 0.519-0.293 0.707s-0.442 0.293-0.707 0.293z"></path>
</symbol>
<symbol id="icon-sandwich" viewBox="0 0 32 32">
<path fill="#363853" style="fill: var(--color2, #363853)" d="M30.4 4.8h-1.067v-1.067c0-0.884-0.716-1.6-1.6-1.6h-1.27l-0.772-1.543c-0.179-0.363-0.55-0.592-0.954-0.59h-0.737c-0.589 0-1.067 0.478-1.067 1.067v1.067h-5.867c-0.884 0-1.6 0.716-1.6 1.6v1.067h-1.067c-0.884 0-1.6 0.716-1.6 1.6v1.067c0 0.589 0.478 1.067 1.067 1.067h0.057l0.624 5.51-2.57-0.604c-0.13-0.199-0.267-0.397-0.419-0.591l-0.907-3.902c-0.056-0.241-0.271-0.412-0.518-0.413h-3.065c-1.446-1.274-3.155-1.85-4.444-1.471l-0.783-0.853c-0.296-0.323-0.761-0.429-1.167-0.267-0.407 0.157-0.676 0.549-0.675 0.986v23.483c0.001 0.877 0.712 1.588 1.589 1.589h26.144c0.271-0 0.499-0.204 0.53-0.473l2.613-22.994h0.058c0.589 0 1.067-0.478 1.067-1.067v-1.067c0-0.884-0.716-1.6-1.6-1.6zM24 1.067h0.737l0.533 1.067h-1.27v-1.067zM16.533 3.733c0-0.295 0.239-0.533 0.533-0.533h10.667c0.295 0 0.533 0.239 0.533 0.533v1.067h-11.733v-1.067zM15.040 15.253l0.034 0.006 0.431 0.102 0.289 3.027c-0.838-0.593-1.84-0.909-2.866-0.904 0.198-0.941 0.093-1.92-0.299-2.798l2.411 0.566zM16.082 19.971l0.007 0.006c0.193 0.179 0.377 0.368 0.549 0.566 0.635 0.708 1.101 1.55 1.365 2.463 0.090 0.318 0.137 0.647 0.138 0.978l-4.981-5.433c1.108 0.124 2.14 0.625 2.922 1.419zM10.462 13.193v-0.001c1.151 1.323 1.687 2.912 1.433 3.979l-5.428-5.917c1.095-0.245 2.76 0.524 3.995 1.939zM9.707 9.6l0.427 1.816c-0.429-0.334-0.896-0.616-1.391-0.839-0.202-0.341-0.427-0.667-0.675-0.977h1.639zM7.026 9.997h0.002c0.044 0.051 0.081 0.107 0.123 0.16-0.501-0.046-1.005 0.039-1.463 0.246l-2.193-2.391c1.072 0.015 2.471 0.77 3.53 1.985zM22.354 30.62c-0.083 0.19-0.27 0.313-0.477 0.313h-20.288c-0.289 0-0.523-0.234-0.523-0.523l-0.010-23.477 20.447 22.297c0.012 0.016 0.025 0.032 0.039 0.047l0.715 0.78c0.141 0.152 0.179 0.372 0.096 0.562zM19.053 24.978c0.098-0.318 0.147-0.65 0.147-0.983 0.28 0.236 0.541 0.494 0.781 0.772 0.298 0.34 0.562 0.709 0.79 1.1 0.311 0.524 0.532 1.096 0.651 1.694l-2.369-2.582zM27.257 30.933h-3.885c0.2-0.553 0.073-1.171-0.328-1.6l-0.537-0.587c0.105-0.893-0.039-1.797-0.416-2.613h5.712l-0.546 4.8zM27.924 25.067h-6.4c-0.219-0.351-0.464-0.685-0.734-1-0.525-0.609-1.141-1.133-1.827-1.554-0.313-0.988-0.831-1.899-1.52-2.674-0.16-0.181-0.32-0.35-0.488-0.513l-0.421-4.444c-0.022-0.227-0.186-0.416-0.408-0.468l-0.473-0.112-0.112-0.969h13.717l-1.334 11.733zM29.379 12.267h-13.959l-0.422-3.733h14.805l-0.424 3.733zM30.933 7.467h-17.067v-1.067c0-0.295 0.239-0.533 0.533-0.533h16c0.295 0 0.533 0.239 0.533 0.533v1.067z"></path>
<path fill="#363853" style="fill: var(--color2, #363853)" d="M22.619 23.467c0.030 0 0.060-0.004 0.090-0.005 0.008 0 0.016 0.005 0.024 0.005 0.027-0.002 0.053-0.005 0.079-0.011 0.835-0.056 1.604-0.472 2.108-1.14 0.672-0.944 0.864-2.148 0.52-3.254-0.074-0.276-0.142-0.547-0.207-0.809-0.416-1.668-0.813-3.241-2.498-3.311-0.017 0-0.033-0.003-0.050-0.003s-0.042-0.004-0.066-0.004c-1.885 0-3.419 1.914-3.419 4.267s1.534 4.267 3.419 4.267zM23.031 16.080c0.551 0.216 0.794 0.939 1.166 2.43 0.067 0.267 0.136 0.546 0.213 0.829 0.255 0.786 0.131 1.646-0.338 2.327-0.17 0.223-0.387 0.405-0.637 0.533-0.018-0.917-0.199-1.823-0.533-2.677-0.053-0.166-0.107-0.327-0.154-0.48-0.31-1.010 0.053-2.318 0.282-2.963zM21.885 16.16c-0.347 1.030-0.4 2.137-0.154 3.195 0.049 0.16 0.104 0.326 0.16 0.498 0.267 0.814 0.587 1.798 0.456 2.522-1.169-0.182-2.081-1.536-2.081-3.175 0-1.416 0.68-2.618 1.619-3.040z"></path>
<path fill="#363853" style="fill: var(--color2, #363853)" d="M2.823 28.046l-0.377 0.377c-0.139 0.134-0.194 0.332-0.145 0.519s0.194 0.332 0.381 0.381c0.187 0.049 0.385-0.007 0.519-0.145l0.377-0.377c0.202-0.209 0.199-0.542-0.006-0.748s-0.538-0.209-0.748-0.007z"></path>
<path fill="#363853" style="fill: var(--color2, #363853)" d="M7.922 24.456c0.208-0.208 0.208-0.546 0-0.755s-0.546-0.208-0.755 0l-0.377 0.377c-0.135 0.135-0.188 0.331-0.138 0.515s0.193 0.328 0.377 0.377 0.381-0.003 0.515-0.138l0.378-0.377z"></path>
<path fill="#363853" style="fill: var(--color2, #363853)" d="M3.2 23.090l-0.377 0.377c-0.139 0.134-0.194 0.332-0.145 0.519s0.194 0.332 0.381 0.381c0.187 0.049 0.385-0.007 0.519-0.145l0.377-0.377c0.202-0.209 0.199-0.542-0.006-0.748s-0.538-0.209-0.748-0.007z"></path>
<path fill="#363853" style="fill: var(--color2, #363853)" d="M3.2 19.356l-0.377 0.377c-0.139 0.134-0.194 0.332-0.145 0.519s0.194 0.332 0.381 0.381c0.187 0.049 0.385-0.007 0.519-0.145l0.377-0.377c0.202-0.209 0.199-0.542-0.006-0.748s-0.538-0.209-0.748-0.006z"></path>
<path fill="#363853" style="fill: var(--color2, #363853)" d="M8 28.046l-0.377 0.377c-0.139 0.134-0.194 0.332-0.145 0.519s0.194 0.332 0.381 0.381c0.186 0.049 0.385-0.007 0.519-0.145l0.377-0.377c0.202-0.209 0.199-0.542-0.006-0.748s-0.538-0.209-0.748-0.007z"></path>
<path fill="#363853" style="fill: var(--color2, #363853)" d="M11.89 28.046l-0.377 0.377c-0.139 0.134-0.194 0.332-0.145 0.519s0.194 0.332 0.381 0.381c0.186 0.049 0.385-0.007 0.519-0.145l0.377-0.377c0.202-0.209 0.199-0.542-0.006-0.748s-0.538-0.209-0.748-0.007z"></path>
</symbol>
<symbol id="icon-search" viewBox="0 0 32 32">
<path fill="none" stroke="#363853" style="stroke: var(--color2, #363853)" stroke-linejoin="round" stroke-linecap="round" stroke-miterlimit="4" stroke-width="2" d="M27.674 15.507c0 6.542-5.366 11.846-11.985 11.846s-11.985-5.303-11.985-11.846c0-6.542 5.366-11.846 11.985-11.846s11.985 5.303 11.985 11.846z"></path>
<path fill="none" stroke="#363853" style="stroke: var(--color2, #363853)" stroke-linejoin="round" stroke-linecap="round" stroke-miterlimit="4" stroke-width="2" d="M24.024 24.361l4.699 4.632"></path>
</symbol>
<symbol id="icon-send" viewBox="0 0 32 32">
<path fill="#fff" style="fill: var(--color1, #fff)" d="M19.878 30.507c-0.553 0-1.064-0.295-1.313-0.767l-4.355-8.231c-0.239-0.452-0.198-0.993 0.106-1.41l7.030-9.005-9.531 6.642c-0.442 0.288-1.014 0.324-1.492 0.1l-8.709-4.114c-0.522-0.248-0.841-0.765-0.809-1.317 0.031-0.552 0.408-1.034 0.957-1.224l27.881-9.707c0.536-0.184 1.139-0.064 1.545 0.32 0.405 0.381 0.537 0.953 0.339 1.46l-10.272 26.347c-0.203 0.519-0.712 0.875-1.296 0.904-0.026 0.001-0.054 0.003-0.081 0.003z"></path>
</symbol>
<symbol id="icon-stopwatch" viewBox="0 0 32 32">
<path fill="#ff6838" style="fill: var(--color5, #ff6838)" d="M29.886 12.123l0.937-0.937c0.271-0.271 0.42-0.631 0.42-1.014s-0.149-0.744-0.42-1.014l-1.074-1.074c-0.271-0.271-0.631-0.42-1.014-0.42s-0.744 0.149-1.014 0.42l-0.938 0.937c-1.237-0.852-2.641-1.479-4.152-1.819v-1.386h0.57c0.772 0 1.401-0.628 1.401-1.401v-1.949c0-0.772-0.628-1.401-1.401-1.401h-6.449c-0.772 0-1.401 0.628-1.401 1.401v1.949c0 0.772 0.628 1.401 1.401 1.401h0.57v1.389c-1.504 0.342-2.902 0.967-4.134 1.816l-0.937-0.937c-0.271-0.271-0.631-0.42-1.014-0.42s-0.744 0.149-1.014 0.42l-1.074 1.074c-0.559 0.559-0.559 1.47 0 2.029l0.166 0.166h-4.43c-0.345 0-0.625 0.28-0.625 0.625s0.28 0.625 0.625 0.625h4.888c-0.466 0.75-0.851 1.555-1.144 2.402h-8.004c-0.345 0-0.625 0.28-0.625 0.625s0.28 0.625 0.625 0.625h7.647c-0.176 0.775-0.277 1.579-0.295 2.402h-3.977c-0.345 0-0.625 0.28-0.625 0.625s0.28 0.625 0.625 0.625h4.014c0.068 0.827 0.219 1.631 0.447 2.402h-5.336c-0.345 0-0.625 0.28-0.625 0.625s0.28 0.625 0.625 0.625h5.78c1.818 4.328 6.101 7.375 11.081 7.375 6.624 0 12.013-5.389 12.013-12.013 0-2.521-0.781-4.863-2.114-6.797zM28.605 8.967c0.045-0.045 0.096-0.054 0.131-0.054s0.086 0.009 0.131 0.054l1.074 1.074c0.045 0.045 0.054 0.096 0.054 0.131s-0.009 0.086-0.054 0.131l-0.822 0.822c-0.41-0.479-0.856-0.925-1.335-1.335l0.822-0.822zM16.603 4.415v-1.949c0-0.083 0.068-0.151 0.151-0.151h6.449c0.083 0 0.151 0.068 0.151 0.151v1.949c0 0.083-0.068 0.151-0.151 0.151h-6.449c-0.083 0-0.151-0.068-0.151-0.151zM18.574 5.816h2.808v1.173c-0.458-0.053-0.923-0.081-1.395-0.081-0.478 0-0.949 0.029-1.413 0.083l-0-1.175zM10.033 10.041l1.074-1.074c0.045-0.045 0.096-0.054 0.131-0.054s0.086 0.009 0.131 0.054l0.822 0.822c-0.479 0.409-0.925 0.856-1.335 1.335l-0.822-0.822c-0.072-0.072-0.072-0.189 0-0.261zM19.987 29.684c-5.935 0-10.763-4.828-10.763-10.763s4.828-10.763 10.763-10.763c5.935 0 10.763 4.828 10.763 10.763s-4.828 10.763-10.763 10.763z"></path>
<path fill="#ff6838" style="fill: var(--color5, #ff6838)" d="M24.112 13.912l-2.954 2.954c-0.346-0.198-0.745-0.311-1.171-0.311-1.305 0-2.366 1.061-2.366 2.366s1.061 2.366 2.366 2.366 2.366-1.061 2.366-2.366c0-0.426-0.114-0.825-0.311-1.171l2.954-2.954c0.244-0.244 0.244-0.64 0-0.884s-0.64-0.244-0.884 0zM19.987 20.037c-0.615 0-1.116-0.501-1.116-1.116s0.501-1.116 1.116-1.116 1.116 0.501 1.116 1.116c0 0.615-0.501 1.116-1.116 1.116z"></path>
<path fill="#ff6838" style="fill: var(--color5, #ff6838)" d="M19.987 10.818c0.164 0 0.326-0.067 0.442-0.183s0.183-0.278 0.183-0.442c0-0.164-0.067-0.326-0.183-0.442s-0.277-0.183-0.442-0.183c-0.164 0-0.326 0.067-0.442 0.183s-0.183 0.277-0.183 0.442c0 0.165 0.067 0.326 0.183 0.442s0.277 0.183 0.442 0.183z"></path>
<path fill="#ff6838" style="fill: var(--color5, #ff6838)" d="M19.987 27.024c-0.164 0-0.326 0.067-0.442 0.183s-0.183 0.278-0.183 0.442c0 0.165 0.067 0.326 0.183 0.442s0.277 0.183 0.442 0.183c0.164 0 0.326-0.066 0.442-0.183s0.183-0.277 0.183-0.442c0-0.164-0.067-0.326-0.183-0.442s-0.277-0.183-0.442-0.183z"></path>
<path fill="#ff6838" style="fill: var(--color5, #ff6838)" d="M13.815 12.124c-0.164 0-0.326 0.067-0.442 0.183s-0.183 0.278-0.183 0.442c0 0.165 0.067 0.326 0.183 0.443s0.278 0.182 0.442 0.182c0.164 0 0.326-0.066 0.442-0.182s0.183-0.278 0.183-0.443c0-0.164-0.067-0.325-0.183-0.442s-0.277-0.183-0.442-0.183z"></path>
<path fill="#ff6838" style="fill: var(--color5, #ff6838)" d="M26.159 24.467c-0.165 0-0.326 0.067-0.443 0.183s-0.183 0.277-0.183 0.442c0 0.164 0.066 0.326 0.183 0.442s0.277 0.183 0.443 0.183c0.164 0 0.326-0.067 0.442-0.183s0.183-0.278 0.183-0.442c0-0.164-0.067-0.326-0.183-0.442s-0.277-0.183-0.442-0.183z"></path>
<path fill="#ff6838" style="fill: var(--color5, #ff6838)" d="M13.815 24.467c-0.164 0-0.326 0.067-0.442 0.183s-0.183 0.277-0.183 0.442c0 0.164 0.067 0.326 0.183 0.442s0.278 0.183 0.442 0.183c0.164 0 0.326-0.067 0.442-0.183s0.183-0.278 0.183-0.442c0-0.164-0.067-0.326-0.183-0.442s-0.277-0.183-0.442-0.183z"></path>
<path fill="#ff6838" style="fill: var(--color5, #ff6838)" d="M11.259 18.296c-0.165 0-0.326 0.067-0.442 0.183s-0.183 0.277-0.183 0.442c0 0.164 0.066 0.326 0.183 0.442s0.277 0.183 0.442 0.183c0.164 0 0.326-0.066 0.442-0.183s0.183-0.277 0.183-0.442c0-0.164-0.067-0.326-0.183-0.442s-0.278-0.183-0.442-0.183z"></path>
<path fill="#ff6838" style="fill: var(--color5, #ff6838)" d="M29.157 18.479c-0.116-0.116-0.277-0.183-0.442-0.183s-0.326 0.067-0.442 0.183c-0.116 0.116-0.183 0.277-0.183 0.442s0.067 0.326 0.183 0.442c0.116 0.116 0.277 0.183 0.442 0.183s0.326-0.067 0.442-0.183c0.116-0.116 0.183-0.277 0.183-0.442s-0.067-0.326-0.183-0.442z"></path>
<path fill="#ff6838" style="fill: var(--color5, #ff6838)" d="M0.625 22.309c-0.164 0-0.326 0.066-0.442 0.183s-0.183 0.278-0.183 0.443c0 0.164 0.067 0.325 0.183 0.442s0.278 0.183 0.442 0.183 0.326-0.067 0.442-0.183c0.116-0.116 0.183-0.278 0.183-0.442s-0.067-0.326-0.183-0.443c-0.116-0.116-0.277-0.183-0.442-0.183z"></path>
<path fill="#ff6838" style="fill: var(--color5, #ff6838)" d="M28.531 17.023c0.331-0.099 0.519-0.447 0.421-0.777-0.442-1.483-1.257-2.847-2.358-3.946s-2.467-1.911-3.951-2.35c-0.331-0.098-0.679 0.091-0.776 0.422s0.091 0.679 0.422 0.776c2.637 0.779 4.68 2.818 5.466 5.454 0.081 0.271 0.329 0.447 0.599 0.447 0.059 0 0.119-0.008 0.179-0.026z"></path>
</symbol>
<symbol id="icon-twitter" viewBox="0 0 40 32">
<path d="M38.638 3.729c-1.421 0.613-2.967 1.054-4.56 1.226 1.654-0.982 2.892-2.534 3.483-4.365-1.552 0.923-3.252 1.57-5.024 1.913-0.741-0.792-1.637-1.423-2.632-1.854s-2.069-0.652-3.153-0.649c-4.388 0-7.917 3.557-7.917 7.922 0 0.613 0.074 1.226 0.195 1.816-6.57-0.344-12.43-3.483-16.326-8.288-0.71 1.212-1.082 2.593-1.077 3.998 0 2.749 1.398 5.173 3.529 6.598-1.256-0.049-2.483-0.395-3.58-1.008v0.098c0 3.849 2.721 7.039 6.348 7.773-0.681 0.177-1.381 0.267-2.085 0.269-0.515 0-1.003-0.051-1.495-0.121 1.003 3.139 3.924 5.419 7.402 5.493-2.721 2.131-6.129 3.385-9.83 3.385-0.664 0-1.277-0.023-1.913-0.098 3.51 2.252 7.676 3.552 12.161 3.552 14.562 0 22.53-12.063 22.53-22.534 0-0.344 0-0.687-0.023-1.031 1.542-1.128 2.893-2.526 3.97-4.095z"></path>
</symbol>
<symbol id="icon-google" viewBox="0 0 32 32">
<path d="M16.319 13.713v5.487h9.075c-0.369 2.356-2.744 6.9-9.075 6.9-5.463 0-9.919-4.525-9.919-10.1s4.456-10.1 9.919-10.1c3.106 0 5.188 1.325 6.375 2.469l4.344-4.181c-2.788-2.612-6.4-4.188-10.719-4.188-8.844 0-16 7.156-16 16s7.156 16 16 16c9.231 0 15.363-6.494 15.363-15.631 0-1.050-0.113-1.85-0.25-2.65l-15.113-0.006z"></path>
</symbol>
<symbol id="icon-instagram" viewBox="0 0 32 32">
<path d="M16 2.881c4.275 0 4.781 0.019 6.462 0.094 1.563 0.069 2.406 0.331 2.969 0.55 0.744 0.288 1.281 0.638 1.837 1.194 0.563 0.563 0.906 1.094 1.2 1.838 0.219 0.563 0.481 1.412 0.55 2.969 0.075 1.688 0.094 2.194 0.094 6.463s-0.019 4.781-0.094 6.463c-0.069 1.563-0.331 2.406-0.55 2.969-0.288 0.744-0.637 1.281-1.194 1.837-0.563 0.563-1.094 0.906-1.837 1.2-0.563 0.219-1.413 0.481-2.969 0.55-1.688 0.075-2.194 0.094-6.463 0.094s-4.781-0.019-6.463-0.094c-1.563-0.069-2.406-0.331-2.969-0.55-0.744-0.288-1.281-0.637-1.838-1.194-0.563-0.563-0.906-1.094-1.2-1.837-0.219-0.563-0.481-1.413-0.55-2.969-0.075-1.688-0.094-2.194-0.094-6.463s0.019-4.781 0.094-6.463c0.069-1.563 0.331-2.406 0.55-2.969 0.288-0.744 0.638-1.281 1.194-1.838 0.563-0.563 1.094-0.906 1.838-1.2 0.563-0.219 1.412-0.481 2.969-0.55 1.681-0.075 2.188-0.094 6.463-0.094zM16 0c-4.344 0-4.887 0.019-6.594 0.094-1.7 0.075-2.869 0.35-3.881 0.744-1.056 0.412-1.95 0.956-2.837 1.85-0.894 0.888-1.438 1.781-1.85 2.831-0.394 1.019-0.669 2.181-0.744 3.881-0.075 1.713-0.094 2.256-0.094 6.6s0.019 4.887 0.094 6.594c0.075 1.7 0.35 2.869 0.744 3.881 0.413 1.056 0.956 1.95 1.85 2.837 0.887 0.887 1.781 1.438 2.831 1.844 1.019 0.394 2.181 0.669 3.881 0.744 1.706 0.075 2.25 0.094 6.594 0.094s4.888-0.019 6.594-0.094c1.7-0.075 2.869-0.35 3.881-0.744 1.050-0.406 1.944-0.956 2.831-1.844s1.438-1.781 1.844-2.831c0.394-1.019 0.669-2.181 0.744-3.881 0.075-1.706 0.094-2.25 0.094-6.594s-0.019-4.887-0.094-6.594c-0.075-1.7-0.35-2.869-0.744-3.881-0.394-1.063-0.938-1.956-1.831-2.844-0.887-0.887-1.781-1.438-2.831-1.844-1.019-0.394-2.181-0.669-3.881-0.744-1.712-0.081-2.256-0.1-6.6-0.1v0z"></path>
<path d="M16 7.781c-4.537 0-8.219 3.681-8.219 8.219s3.681 8.219 8.219 8.219 8.219-3.681 8.219-8.219c0-4.537-3.681-8.219-8.219-8.219zM16 21.331c-2.944 0-5.331-2.387-5.331-5.331s2.387-5.331 5.331-5.331c2.944 0 5.331 2.387 5.331 5.331s-2.387 5.331-5.331 5.331z"></path>
<path d="M26.462 7.456c0 1.060-0.859 1.919-1.919 1.919s-1.919-0.859-1.919-1.919c0-1.060 0.859-1.919 1.919-1.919s1.919 0.859 1.919 1.919z"></path>
</symbol>
<symbol id="icon-linkedin2" viewBox="0 0 32 32">
<path d="M12 12h5.535v2.837h0.079c0.77-1.381 2.655-2.837 5.464-2.837 5.842 0 6.922 3.637 6.922 8.367v9.633h-5.769v-8.54c0-2.037-0.042-4.657-3.001-4.657-3.005 0-3.463 2.218-3.463 4.509v8.688h-5.767v-18z"></path>
<path d="M2 12h6v18h-6v-18z"></path>
<path d="M8 7c0 1.657-1.343 3-3 3s-3-1.343-3-3c0-1.657 1.343-3 3-3s3 1.343 3 3z"></path>
</symbol>
<symbol id="icon-pinterest2" viewBox="0 0 32 32">
<path d="M16 0c-8.825 0-16 7.175-16 16s7.175 16 16 16 16-7.175 16-16-7.175-16-16-16zM16 29.863c-1.431 0-2.806-0.219-4.106-0.619 0.563-0.919 1.412-2.431 1.725-3.631 0.169-0.65 0.863-3.294 0.863-3.294 0.45 0.863 1.775 1.594 3.175 1.594 4.181 0 7.194-3.844 7.194-8.625 0-4.581-3.738-8.006-8.544-8.006-5.981 0-9.156 4.019-9.156 8.387 0 2.031 1.081 4.563 2.813 5.369 0.262 0.125 0.4 0.069 0.463-0.188 0.044-0.194 0.281-1.131 0.387-1.575 0.031-0.137 0.019-0.262-0.094-0.4-0.575-0.694-1.031-1.975-1.031-3.162 0-3.056 2.313-6.019 6.256-6.019 3.406 0 5.788 2.319 5.788 5.637 0 3.75-1.894 6.35-4.356 6.35-1.363 0-2.381-1.125-2.050-2.506 0.394-1.65 1.15-3.425 1.15-4.613 0-1.063-0.569-1.95-1.756-1.95-1.394 0-2.506 1.438-2.506 3.369 0 1.225 0.412 2.056 0.412 2.056s-1.375 5.806-1.625 6.887c-0.281 1.2-0.169 2.881-0.050 3.975-5.156-2.012-8.813-7.025-8.813-12.9 0-7.656 6.206-13.863 13.862-13.863s13.863 6.206 13.863 13.863c0 7.656-6.206 13.863-13.863 13.863z"></path>
</symbol>
</defs>
</svg>
