<svg aria-hidden="true" style="position: absolute; width: 0; height: 0; overflow: hidden;" version="1.1" xmlns="http://www.w3.org/2000/svg" xmlns:xlink="http://www.w3.org/1999/xlink">
<defs>
<symbol id="icon-send" viewBox="0 0 32 32">
<path d="M19.878 30.507c-0.553 0-1.064-0.295-1.313-0.767l-4.355-8.231c-0.239-0.452-0.198-0.993 0.106-1.41l7.030-9.005-9.531 6.642c-0.442 0.288-1.014 0.324-1.492 0.1l-8.709-4.114c-0.522-0.248-0.841-0.765-0.809-1.317 0.031-0.552 0.408-1.034 0.957-1.224l27.881-9.707c0.536-0.184 1.139-0.064 1.545 0.32 0.405 0.381 0.537 0.953 0.339 1.46l-10.272 26.347c-0.203 0.519-0.712 0.875-1.296 0.904-0.026 0.001-0.054 0.003-0.081 0.003z"></path>
</symbol>
<symbol id="icon-asian" viewBox="0 0 41 32">
<path d="M14.241 8.063h2c0.519 0 0.941 0.422 0.941 0.941v1.379c0 0.335 0.272 0.607 0.607 0.607s0.607-0.272 0.607-0.607v-1.379c0-1.188-0.966-2.154-2.154-2.154h-2c-0.51 0-0.925-0.415-0.925-0.925s0.415-0.925 0.925-0.925h4.434c1.179 0 2.138-0.959 2.138-2.139s-0.959-2.138-2.138-2.138h-3.547c-0.335 0-0.607 0.272-0.607 0.607s0.272 0.607 0.607 0.607h3.547c0.51 0 0.925 0.415 0.925 0.925s-0.415 0.925-0.925 0.925h-4.434c-1.179 0-2.139 0.959-2.139 2.138s0.959 2.139 2.139 2.139z"></path>
<path d="M6.954 12.134h1.985c0.512 0 0.929 0.417 0.929 0.929v1.368c0 0.335 0.272 0.607 0.607 0.607s0.607-0.272 0.607-0.607v-1.368c0-1.181-0.961-2.143-2.142-2.143h-1.985c-0.504 0-0.913-0.41-0.913-0.913s0.41-0.913 0.913-0.913h2.32c0.335 0 0.607-0.272 0.607-0.607s-0.272-0.607-0.607-0.607h-2.32c-1.173 0-2.127 0.954-2.127 2.127s0.954 2.127 2.127 2.127z"></path>
<path d="M24.143 20.529c0.335 0 0.607-0.272 0.607-0.607s-0.272-0.607-0.607-0.607c-0.335 0-0.607 0.272-0.607 0.607s0.272 0.607 0.607 0.607z"></path>
<path d="M27.136 21.904c0.335 0 0.607-0.272 0.607-0.607s-0.272-0.607-0.607-0.607c-0.335 0-0.607 0.272-0.607 0.607s0.272 0.607 0.607 0.607z"></path>
<path d="M28.915 24.007c0.335 0 0.607-0.272 0.607-0.607s-0.272-0.607-0.607-0.607c-0.335 0-0.607 0.272-0.607 0.607s0.272 0.607 0.607 0.607z"></path>
<path d="M26.408 19.073c0.335 0 0.607-0.272 0.607-0.607s-0.272-0.607-0.607-0.607c-0.335 0-0.607 0.272-0.607 0.607s0.272 0.607 0.607 0.607z"></path>
<path d="M24.386 24.412c0.335 0 0.607-0.272 0.607-0.607s-0.272-0.607-0.607-0.607c-0.335 0-0.607 0.272-0.607 0.607s0.272 0.607 0.607 0.607z"></path>
<path d="M40.387 16.763h-1.721l0.851-1.758c1.079-0.215 1.895-1.169 1.895-2.31 0-1.17-0.858-2.144-1.978-2.325-1.238-2.23-3.656-3.904-6.589-4.573v-0.046c0-0.335-0.272-0.607-0.607-0.607-0.278 0-0.511 0.187-0.583 0.441-0.369-0.048-0.745-0.079-1.126-0.094-0.097-0.205-0.306-0.347-0.548-0.347s-0.45 0.142-0.548 0.347c-0.381 0.016-0.757 0.047-1.126 0.094-0.072-0.255-0.305-0.441-0.583-0.441-0.335 0-0.607 0.272-0.607 0.607v0.046c-2.933 0.668-5.351 2.343-6.589 4.573-1.12 0.181-1.978 1.155-1.978 2.325 0 0.068 0.003 0.136 0.009 0.203-2.801 0.26-5.317 1.431-7.205 3.186h-3.812c-0.26 0-0.492 0.117-0.65 0.3h-1.781c-0.292-0.737-1.016-1.258-1.842-1.258-1.092 0-1.98 0.888-1.98 1.98 0 0.093 0.007 0.186 0.020 0.276-0.763 0.275-1.309 1.006-1.309 1.863 0 0.38 0.108 0.746 0.306 1.059-0.198 0.313-0.306 0.678-0.306 1.059 0 1.092 0.888 1.98 1.98 1.98 0.826 0 1.55-0.521 1.842-1.258h1.604c0.074 0.27 0.277 0.494 0.551 0.587l1.902 0.646c-0.011 0.196-0.017 0.393-0.017 0.592 0 0.187 0.005 0.373 0.015 0.559-0.297 0.072-0.575 0.195-0.822 0.361-0.407-0.273-0.895-0.432-1.421-0.432-1.411 0-2.558 1.148-2.558 2.558 0 0.022 0.002 0.043 0.002 0.064h-0.71c-0.401 0-0.756 0.225-0.926 0.587s-0.119 0.779 0.135 1.088l1.82 2.211c0.195 0.237 0.484 0.373 0.791 0.373h25.656c0.335 0 0.607-0.272 0.607-0.607s-0.272-0.607-0.607-0.607h-25.567l-1.509-1.834h37.218l-1.509 1.834h-5.801c-0.335 0-0.607 0.272-0.607 0.607s0.272 0.607 0.607 0.607h5.89c0.307 0 0.596-0.136 0.791-0.374l1.82-2.211c0.254-0.309 0.306-0.726 0.135-1.089s-0.526-0.587-0.926-0.587h-0.601c0.596-1.032 0.82-2.254 0.603-3.456-0.045-0.249-0.24-0.444-0.489-0.489-1.643-0.297-3.328 0.228-4.506 1.407-0.072 0.072-0.141 0.147-0.208 0.222-0.348-0.188-0.744-0.297-1.164-0.306v-1.154h0.647c1.026 0 1.86-0.835 1.86-1.86v-0.814h3.859c0.565 0 1.025-0.46 1.025-1.025v-1.755c0-0.565-0.46-1.025-1.025-1.025zM5.92 27.018h-1.629c-0.001-0.021-0.002-0.043-0.002-0.064 0-0.742 0.603-1.345 1.345-1.345 0.211 0 0.41 0.049 0.588 0.137-0.194 0.36-0.304 0.771-0.304 1.208 0 0.022 0.002 0.043 0.002 0.064zM36.251 25.338c0.794-0.793 1.888-1.198 2.997-1.125 0.068 1.021-0.272 2.031-0.946 2.804h-1l0.829-0.829c0.237-0.237 0.237-0.621 0-0.858s-0.621-0.237-0.858 0l-0.86 0.86c-0.076-0.243-0.187-0.47-0.328-0.675 0.053-0.061 0.108-0.12 0.166-0.177zM24.003 8.416c0.918-0.615 1.979-1.076 3.114-1.367v0.624c0 0.335 0.272 0.607 0.607 0.607s0.607-0.272 0.607-0.607v-0.865c0.344-0.049 0.692-0.081 1.044-0.099v0.964c0 0.335 0.272 0.607 0.607 0.607s0.607-0.272 0.607-0.607v-0.964c0.351 0.018 0.7 0.050 1.043 0.099v0.865c0 0.335 0.272 0.607 0.607 0.607s0.607-0.272 0.607-0.607v-0.624c1.136 0.29 2.196 0.752 3.114 1.367 0.895 0.599 1.623 1.323 2.154 2.123-0.205 0.090-0.397 0.209-0.569 0.353-0.419-0.351-0.953-0.553-1.513-0.553s-1.094 0.202-1.513 0.553c-0.419-0.351-0.953-0.553-1.513-0.553s-1.094 0.202-1.513 0.553c-0.419-0.351-0.953-0.553-1.513-0.553s-1.094 0.202-1.513 0.553c-0.419-0.351-0.953-0.553-1.513-0.553s-1.094 0.202-1.513 0.553c-0.419-0.351-0.953-0.553-1.513-0.553s-1.094 0.202-1.513 0.553c-0.172-0.144-0.364-0.263-0.569-0.353 0.531-0.8 1.26-1.524 2.154-2.123zM20.905 11.553c0.405 0 0.783 0.219 0.988 0.571 0.109 0.187 0.308 0.302 0.525 0.302s0.416-0.115 0.525-0.302c0.204-0.353 0.583-0.571 0.988-0.571s0.784 0.219 0.988 0.571c0.109 0.187 0.308 0.302 0.525 0.302s0.416-0.115 0.525-0.302c0.204-0.352 0.583-0.571 0.988-0.571s0.783 0.219 0.988 0.571c0.109 0.187 0.308 0.302 0.525 0.302s0.416-0.115 0.525-0.302c0.204-0.352 0.583-0.571 0.988-0.571s0.783 0.219 0.988 0.571c0.108 0.187 0.308 0.302 0.525 0.302s0.416-0.115 0.525-0.302c0.204-0.352 0.583-0.571 0.988-0.571s0.783 0.219 0.988 0.571c0.109 0.187 0.308 0.302 0.525 0.302s0.416-0.115 0.525-0.302c0.204-0.352 0.583-0.571 0.988-0.571s0.783 0.219 0.988 0.571c0.108 0.187 0.308 0.302 0.525 0.302s0.416-0.115 0.525-0.302c0.204-0.352 0.583-0.571 0.988-0.571 0.63 0 1.142 0.512 1.142 1.142s-0.512 1.142-1.142 1.142c-0.405 0-0.784-0.219-0.988-0.571-0.109-0.187-0.308-0.302-0.525-0.302s-0.416 0.115-0.525 0.302c-0.205 0.353-0.583 0.571-0.988 0.571s-0.783-0.219-0.988-0.571c-0.109-0.187-0.308-0.302-0.525-0.302s-0.416 0.115-0.525 0.302c-0.204 0.353-0.583 0.571-0.988 0.571s-0.784-0.219-0.988-0.571c-0.109-0.187-0.308-0.302-0.525-0.302s-0.416 0.115-0.525 0.302c-0.204 0.353-0.583 0.571-0.988 0.571s-0.784-0.219-0.988-0.571c-0.109-0.187-0.308-0.302-0.525-0.302s-0.416 0.115-0.525 0.302c-0.205 0.353-0.583 0.571-0.988 0.571s-0.783-0.219-0.988-0.571c-0.109-0.187-0.308-0.302-0.525-0.302s-0.416 0.115-0.525 0.302c-0.119 0.206-0.299 0.366-0.507 0.464-1.425-0.568-2.992-0.883-4.637-0.887-0.006-0.048-0.011-0.098-0.011-0.148 0-0.63 0.512-1.142 1.142-1.142zM7.898 17.297h2.326c-0.239 0.298-0.463 0.606-0.67 0.926h-1.657v-0.926zM5.396 20.87h-2.048c-0.316 0-0.578 0.242-0.605 0.556-0.033 0.394-0.368 0.702-0.763 0.702-0.423 0-0.767-0.344-0.767-0.767 0-0.229 0.101-0.445 0.279-0.591 0.139-0.115 0.22-0.287 0.22-0.467s-0.081-0.352-0.22-0.467c-0.177-0.146-0.279-0.362-0.279-0.591 0-0.423 0.344-0.767 0.767-0.767 0.395 0 0.73 0.308 0.763 0.702 0.026 0.314 0.289 0.556 0.605 0.556h2.048v1.134h-0zM5.603 18.523h-1.781c-0.223-0.564-0.699-1-1.28-1.175-0.026-0.077-0.040-0.159-0.040-0.243 0-0.423 0.344-0.767 0.767-0.767 0.395 0 0.73 0.308 0.763 0.702 0.026 0.314 0.289 0.556 0.605 0.556h2.048v0.626h-0.432c-0.26 0-0.492 0.117-0.65 0.3zM9.819 27.018h-2.686c-0.001-0.021-0.002-0.043-0.002-0.064 0-0.742 0.603-1.345 1.345-1.345s1.345 0.603 1.345 1.345c0 0.022-0.001 0.043-0.002 0.064zM28.529 27.018h-2.112c-0.001-0.021-0.002-0.043-0.002-0.064 0-0.742 0.603-1.345 1.345-1.345 0.371 0 0.707 0.151 0.951 0.394-0.118 0.294-0.184 0.615-0.184 0.951-0 0.022 0.002 0.043 0.002 0.064zM27.76 24.395c-1.411 0-2.558 1.148-2.558 2.558 0 0.022 0.002 0.043 0.002 0.064h-14.171c0.001-0.022 0.002-0.043 0.002-0.064 0-1.198-0.828-2.206-1.942-2.483-0.011-0.187-0.018-0.374-0.018-0.563 0-0.062 0.001-0.123 0.002-0.185l6.204 2.107c0.418 0.142 0.845 0.212 1.269 0.212 0.8 0 1.585-0.25 2.263-0.735 1.037-0.743 1.631-1.9 1.631-3.176 0-0.456-0.078-0.903-0.232-1.33-0.114-0.315-0.462-0.478-0.777-0.364s-0.478 0.462-0.364 0.777c0.106 0.294 0.16 0.602 0.16 0.917 0 0.879-0.41 1.677-1.125 2.19s-1.602 0.644-2.435 0.361l-9.063-3.077v-2.167h9.929c0.304 0 0.604 0.051 0.891 0.152 0.316 0.111 0.662-0.056 0.773-0.372s-0.056-0.662-0.372-0.773c-0.416-0.146-0.851-0.22-1.292-0.22h-5.5c1.935-2.519 5.118-4.167 8.711-4.167 5.885 0 10.674 4.42 10.674 9.852 0 0.194-0.007 0.387-0.019 0.579-0.366 0.102-0.7 0.283-0.981 0.524-0.447-0.384-1.028-0.616-1.662-0.616zM32.427 27.018h-2.686c-0.001-0.021-0.002-0.043-0.002-0.064 0-0.742 0.603-1.345 1.345-1.345s1.345 0.603 1.345 1.345c0 0.022-0.001 0.043-0.002 0.064zM32.808 24.677c-0.097 0.050-0.191 0.104-0.28 0.165-0.27-0.185-0.577-0.319-0.907-0.39 0.009-0.181 0.015-0.363 0.015-0.545 0-0.224-0.009-0.445-0.024-0.666h1.196v1.435zM35.315 26.953c0 0.022-0.001 0.043-0.002 0.064h-1.673c0.001-0.022 0.002-0.043 0.002-0.064 0-0.43-0.107-0.835-0.295-1.191 0.186-0.098 0.398-0.154 0.623-0.154 0.742 0 1.345 0.603 1.345 1.345zM35.315 21.382c0 0.357-0.29 0.647-0.647 0.647h-3.206c-0.092-0.499-0.219-0.987-0.38-1.462h4.234v0.814zM40.199 19.354h-9.617c-0.233-0.478-0.502-0.939-0.803-1.378h2.574c0.335 0 0.607-0.272 0.607-0.607s-0.272-0.607-0.607-0.607h-3.535c-0.58-0.637-1.236-1.213-1.954-1.714 0.031 0.001 0.061 0.002 0.092 0.002 0.559 0 1.094-0.202 1.513-0.553 0.419 0.351 0.953 0.553 1.513 0.553s1.094-0.202 1.513-0.553c0.419 0.351 0.953 0.553 1.513 0.553s1.094-0.202 1.513-0.553c0.419 0.351 0.953 0.553 1.513 0.553s1.094-0.202 1.513-0.553c0.202 0.17 0.432 0.304 0.678 0.398l-0.903 1.867h-2.135c-0.335 0-0.607 0.272-0.607 0.607s0.272 0.607 0.607 0.607h5.015v1.378z"></path>
</symbol>
<symbol id="icon-burger" viewBox="0 0 36 32">
<path d="M36.103 15.865c0-1.386-0.894-2.567-2.135-2.998-0.191-4.3-1.796-7.6-4.78-9.818-2.723-2.024-6.47-3.050-11.137-3.050s-8.414 1.026-11.137 3.050c-2.984 2.217-4.589 5.518-4.78 9.818-1.241 0.431-2.135 1.612-2.135 2.998 0 0.812 0.307 1.554 0.811 2.115-0.504 0.562-0.811 1.303-0.811 2.115 0 1.395 0.905 2.581 2.158 3.005 0.454 4.833 4.562 8.629 9.547 8.629h12.692c4.985 0 9.094-3.796 9.547-8.629 1.253-0.424 2.158-1.611 2.158-3.005 0-0.812-0.307-1.554-0.811-2.115 0.504-0.562 0.811-1.303 0.811-2.115zM18.051 2.115c6.066 0 13.252 1.87 13.787 10.577h-27.575c0.535-8.707 7.721-10.577 13.787-10.577zM3.173 14.808h29.756c0.583 0 1.058 0.474 1.058 1.058s-0.474 1.058-1.058 1.058h-29.756c-0.583 0-1.058-0.474-1.058-1.058s0.474-1.058 1.058-1.058zM24.397 29.615h-12.692c-3.759 0-6.878-2.763-7.398-6.346h0.981c0.707 0 0.931 0.241 1.376 0.72 0.547 0.589 1.296 1.396 2.926 1.396 1.641 0 2.371-0.815 2.903-1.41 0.421-0.47 0.632-0.706 1.327-0.706s0.907 0.236 1.327 0.706c0.533 0.595 1.262 1.41 2.903 1.41s2.371-0.815 2.903-1.41c0.421-0.47 0.632-0.706 1.327-0.706s0.907 0.236 1.327 0.706c0.533 0.595 1.262 1.41 2.903 1.41s2.371-0.815 2.903-1.41c0.421-0.47 0.632-0.706 1.327-0.706h1.052c-0.52 3.583-3.639 6.346-7.398 6.346zM32.929 21.154h-2.186c-1.641 0-2.371 0.815-2.903 1.41-0.421 0.47-0.632 0.706-1.327 0.706s-0.907-0.236-1.327-0.706c-0.533-0.595-1.262-1.41-2.903-1.41s-2.371 0.815-2.903 1.41c-0.421 0.47-0.632 0.706-1.327 0.706s-0.907-0.236-1.327-0.706c-0.533-0.595-1.262-1.41-2.903-1.41s-2.371 0.815-2.903 1.41c-0.421 0.47-0.632 0.706-1.327 0.706-0.707 0-0.931-0.241-1.376-0.72-0.547-0.589-1.296-1.396-2.926-1.396h-2.115c-0.583 0-1.058-0.474-1.058-1.058s0.474-1.058 1.058-1.058h29.756c0.583 0 1.058 0.474 1.058 1.058s-0.474 1.058-1.058 1.058z"></path>
<path d="M11.705 10.577c0.584 0 1.058-0.474 1.058-1.058s-0.474-1.058-1.058-1.058c-0.584 0-1.058 0.474-1.058 1.058s0.474 1.058 1.058 1.058z"></path>
<path d="M24.397 10.577c0.584 0 1.058-0.474 1.058-1.058s-0.474-1.058-1.058-1.058c-0.584 0-1.058 0.474-1.058 1.058s0.474 1.058 1.058 1.058z"></path>
<path d="M20.167 8.462c0.584 0 1.058-0.474 1.058-1.058s-0.474-1.058-1.058-1.058c-0.584 0-1.058 0.474-1.058 1.058s0.474 1.058 1.058 1.058z"></path>
<path d="M15.936 6.346c0.584 0 1.058-0.474 1.058-1.058s-0.474-1.058-1.058-1.058c-0.584 0-1.058 0.474-1.058 1.058s0.474 1.058 1.058 1.058z"></path>
</symbol>
<symbol id="icon-calling" viewBox="0 0 32 32">
<path id="Stroke 1" d="M14.353 2.5C18.054 2.911 20.978 5.831 21.393 9.532" stroke-width="1.5" stroke-linecap="round" stroke-linejoin="round"/>
<path id="Stroke 3" d="M14.353 6.04297C16.124 6.38697 17.508 7.77197 17.853 9.54297" stroke-width="1.5" stroke-linecap="round" stroke-linejoin="round"/>
<path id="Stroke 5" fill-rule="evenodd" clip-rule="evenodd" d="M11.0315 12.4724C15.0205 16.4604 15.9254 11.8467 18.4653 14.3848C20.9138 16.8328 22.3222 17.3232 19.2188 20.4247C18.8302 20.737 16.3613 24.4943 7.68447 15.8197C-0.993406 7.144 2.76157 4.67244 3.07394 4.28395C6.18377 1.17385 6.66682 2.58938 9.11539 5.03733C11.6541 7.5765 7.04254 8.48441 11.0315 12.4724Z" stroke-width="1.5" stroke-linecap="round" stroke-linejoin="round"/>
</symbol>
<symbol id="icon-cart" viewBox="0 0 34 32">
<path d="M1 1.17578L3.08 1.5316L4.04301 12.8715C4.12001 13.7976 4.90301 14.5082 5.84301 14.5053H16.752C17.649 14.5072 18.41 13.8549 18.537 12.9772L19.486 6.49532C19.592 5.77083 19.083 5.09872 18.351 4.99395C18.287 4.98505 3.414 4.98011 3.414 4.98011" stroke-width="1.5" stroke-linecap="round" stroke-linejoin="round"/>
<path d="M12.375 8.63337H15.1479" stroke-width="1.5" stroke-linecap="round" stroke-linejoin="round"/>
<path fill-rule="evenodd" clip-rule="evenodd" d="M5.4043 17.9316C5.70527 17.9316 5.94824 18.1729 5.94824 18.4696C5.94824 18.7673 5.70527 19.0085 5.4043 19.0085C5.10333 19.0085 4.86035 18.7673 4.86035 18.4696C4.86035 18.1729 5.10333 17.9316 5.4043 17.9316Z" stroke-width="1.5" stroke-linecap="round" stroke-linejoin="round"/>
<path fill-rule="evenodd" clip-rule="evenodd" d="M16.6846 17.9316C16.9856 17.9316 17.2296 18.1729 17.2296 18.4696C17.2296 18.7673 16.9856 19.0085 16.6846 19.0085C16.3836 19.0085 16.1406 18.7673 16.1406 18.4696C16.1406 18.1729 16.3836 17.9316 16.6846 17.9316Z" stroke-width="1.5" stroke-linecap="round" stroke-linejoin="round"/>
</symbol>
<symbol id="icon-dish" viewBox="0 0 32 32">
<path d="M22.66 10.66l-0.342-1.114c-0.435-1.265-1.825-1.942-3.105-1.513-0.72 0.242-1.286 0.801-1.53 1.513l-0.342 1.114c-0.288 0.939-0.349 1.933-0.177 2.899 0.157 0.814 0.68 1.513 1.421 1.9l-0.383 8.473c-0.051 0.473 0.104 0.945 0.427 1.298 0.694 0.751 1.873 0.803 2.632 0.117 0.041-0.037 0.080-0.076 0.118-0.117 0.316-0.343 0.471-0.801 0.427-1.263l-0.386-8.509c0.74-0.387 1.262-1.086 1.419-1.899 0.172-0.967 0.112-1.96-0.177-2.899zM21.786 13.376c-0.116 0.585-0.537 1.065-1.107 1.259-0.216 0.080-0.355 0.289-0.345 0.517l0.405 8.899c0.019 0.175-0.040 0.349-0.16 0.478-0.321 0.314-0.838 0.314-1.16 0-0.126-0.14-0.184-0.327-0.157-0.512l0.402-8.864c0.010-0.228-0.129-0.437-0.345-0.517-0.57-0.195-0.991-0.675-1.107-1.259-0.143-0.803-0.092-1.627 0.147-2.407l0.342-1.114c0.265-0.708 1.060-1.070 1.777-0.808 0.379 0.138 0.677 0.434 0.817 0.808l0.342 1.114c0.239 0.78 0.289 1.604 0.147 2.407z"></path>
<path d="M14.4 7.907c-0.295 0-0.533 0.236-0.533 0.527v4.526l-1.444 1.427c-0.107 0.105-0.164 0.25-0.156 0.399l0.467 9.225c0.011 0.199-0.062 0.393-0.202 0.537-0.292 0.291-0.767 0.293-1.062 0.005-0.002-0.002-0.003-0.003-0.005-0.005-0.14-0.144-0.213-0.338-0.202-0.537l0.47-9.225c0.008-0.149-0.049-0.294-0.156-0.399l-1.444-1.427v-4.526c0-0.291-0.239-0.527-0.533-0.527s-0.533 0.236-0.533 0.527v4.744c0 0.14 0.056 0.274 0.156 0.373l1.433 1.416-0.455 8.993c-0.048 0.982 0.718 1.817 1.712 1.865s1.839-0.71 1.887-1.692c0.003-0.058 0.003-0.116 0-0.173l-0.455-8.992 1.433-1.416c0.1-0.099 0.156-0.233 0.156-0.373v-4.744c0-0.291-0.239-0.527-0.533-0.527z"></path>
<path d="M11.2 7.907c-0.295 0-0.533 0.236-0.533 0.527v4.217c0 0.291 0.239 0.527 0.533 0.527s0.533-0.236 0.533-0.527v-4.217c0-0.291-0.239-0.527-0.533-0.527z"></path>
<path d="M12.8 7.907c-0.295 0-0.533 0.236-0.533 0.527v4.217c0 0.291 0.239 0.527 0.533 0.527s0.533-0.236 0.533-0.527v-4.217c0-0.291-0.239-0.527-0.533-0.527z"></path>
<path d="M16 0c-8.837 0-16 7.080-16 15.814s7.163 15.814 16 15.814c8.837 0 16-7.080 16-15.814-0.010-8.73-7.168-15.804-16-15.814zM16 30.574c-8.248 0-14.933-6.608-14.933-14.76s6.686-14.76 14.933-14.76c8.248 0 14.933 6.608 14.933 14.76-0.009 8.148-6.69 14.751-14.933 14.76z"></path>
<path d="M17.731 25.71c-0.029-0.29-0.289-0.502-0.583-0.474-0.007 0.001-0.014 0.001-0.021 0.002l0.002-0c-0.751 0.086-1.509 0.086-2.26 0-0.293-0.034-0.558 0.173-0.592 0.463s0.175 0.552 0.468 0.585c0.833 0.096 1.674 0.096 2.507 0 0.293-0.028 0.508-0.286 0.479-0.576z"></path>
<path d="M24.16 9.022c-0.189-0.223-0.526-0.252-0.751-0.065-0.001 0.001-0.001 0.001-0.002 0.002-0.225 0.188-0.254 0.52-0.064 0.743 3.216 3.773 2.97 9.352-0.566 12.834-0.209 0.206-0.209 0.539-0.001 0.746s0.546 0.207 0.754 0.001c3.929-3.869 4.203-10.068 0.63-14.261z"></path>
<path d="M12.426 6.968c-0 0-0.001-0.001-0.001-0.001s-0.001 0.001-0.002 0.001h0.003z"></path>
<path d="M18.516 5.566c-2.084-0.494-4.27-0.361-6.278 0.381-0.276 0.102-0.415 0.407-0.312 0.679 0.078 0.205 0.277 0.341 0.499 0.342 0.064-0 0.127-0.012 0.187-0.034 1.808-0.668 3.776-0.788 5.653-0.343 0.286 0.068 0.575-0.106 0.644-0.388s-0.107-0.568-0.393-0.636z"></path>
<path d="M9.199 22.509c-1.798-1.774-2.806-4.184-2.799-6.695-0.005-2.006 0.638-3.962 1.835-5.581 0.177-0.233 0.13-0.563-0.106-0.738s-0.57-0.128-0.747 0.105c-0.003 0.004-0.006 0.008-0.009 0.012-3.084 4.19-2.63 9.973 1.070 13.644 0.209 0.206 0.547 0.206 0.755 0s0.209-0.54 0-0.747z"></path>
</symbol>
<symbol id="icon-envelope" viewBox="0 0 35 32">
<path id="Stroke 1" d="M17.9026 8.85107L13.4593 12.4641C12.6198 13.1301 11.4387 13.1301 10.5992 12.4641L6.11841 8.85107" stroke-width="1.5" stroke-linecap="round" stroke-linejoin="round"/>
<path id="Stroke 3" fill-rule="evenodd" clip-rule="evenodd" d="M16.9089 21C19.9502 21.0084 22 18.5095 22 15.4384V8.57001C22 5.49883 19.9502 3 16.9089 3H7.09114C4.04979 3 2 5.49883 2 8.57001V15.4384C2 18.5095 4.04979 21.0084 7.09114 21H16.9089Z" stroke-width="1.5" stroke-linecap="round" stroke-linejoin="round"/>
</symbol>
<symbol id="icon-facebook" viewBox="0 0 15 32">
<path d="M3.881 31.278v-14.677h-3.881v-5.284h3.881v-4.513c0-3.547 2.292-6.804 7.575-6.804 2.139 0 3.72 0.205 3.72 0.205l-0.125 4.935c0 0-1.613-0.016-3.373-0.016-1.905 0-2.21 0.878-2.21 2.335v3.858h5.734l-0.249 5.284h-5.485v14.677h-5.587z"></path>
</symbol>
<symbol id="icon-insta" viewBox="0 0 32 32">
<path d="M15.596 10.398c-2.865 0-5.202 2.338-5.202 5.202s2.338 5.202 5.202 5.202 5.202-2.338 5.202-5.202c0-2.865-2.338-5.202-5.202-5.202zM31.199 15.6c0-2.154 0.020-4.289-0.101-6.439-0.121-2.498-0.691-4.714-2.517-6.541-1.83-1.83-4.043-2.396-6.541-2.517-2.154-0.121-4.289-0.101-6.439-0.101-2.154 0-4.289-0.019-6.439 0.101-2.498 0.121-4.714 0.691-6.541 2.517-1.83 1.83-2.396 4.043-2.517 6.541-0.121 2.154-0.101 4.289-0.101 6.439s-0.019 4.289 0.101 6.439c0.121 2.498 0.691 4.714 2.517 6.541 1.83 1.83 4.043 2.396 6.541 2.517 2.154 0.121 4.289 0.101 6.439 0.101 2.154 0 4.289 0.020 6.439-0.101 2.498-0.121 4.714-0.691 6.541-2.517 1.83-1.83 2.396-4.043 2.517-6.541 0.125-2.15 0.101-4.285 0.101-6.439zM15.596 23.604c-4.429 0-8.004-3.575-8.004-8.004s3.575-8.004 8.004-8.004 8.004 3.575 8.004 8.004c0 4.429-3.575 8.004-8.004 8.004zM23.928 9.137c-1.034 0-1.869-0.835-1.869-1.869s0.835-1.869 1.869-1.869c1.034 0 1.869 0.835 1.869 1.869 0 0.246-0.048 0.489-0.142 0.716s-0.232 0.433-0.405 0.607c-0.174 0.174-0.38 0.311-0.607 0.405s-0.47 0.142-0.716 0.142z"></path>
</symbol>
<symbol id="icon-location" viewBox="0 0 32 32">
<path id="Stroke 1" fill-rule="evenodd" clip-rule="evenodd" d="M14.5 10.5005C14.5 9.11924 13.3808 8 12.0005 8C10.6192 8 9.5 9.11924 9.5 10.5005C9.5 11.8808 10.6192 13 12.0005 13C13.3808 13 14.5 11.8808 14.5 10.5005Z" stroke-width="1.5" stroke-linecap="round" stroke-linejoin="round"/>
<path id="Stroke 3" fill-rule="evenodd" clip-rule="evenodd" d="M11.9995 21C10.801 21 4.5 15.8984 4.5 10.5633C4.5 6.38664 7.8571 3 11.9995 3C16.1419 3 19.5 6.38664 19.5 10.5633C19.5 15.8984 13.198 21 11.9995 21Z" stroke-width="1.5" stroke-linecap="round" stroke-linejoin="round"/>
</symbol>
<symbol id="icon-pizza" viewBox="0 0 33 32">
<path d="M31.897 31.82c-0.171 0.169-0.423 0.225-0.649 0.144l-25.959-9.256c-0.902 0.552-2.046 0.681-3.095 0.246-1.742-0.721-2.572-2.725-1.85-4.467 1.701-4.107 4.157-7.783 7.301-10.926s6.819-5.599 10.926-7.301c0.426-0.177 0.869-0.26 1.304-0.26 1.342 0 2.618 0.795 3.163 2.111 0.366 0.885 0.332 1.837-0.019 2.655l9.031 26.407c0.078 0.227 0.019 0.478-0.152 0.647zM9.219 22.782l2.751 0.981c0.323-0.344 0.48-0.818 0.417-1.297-0.056-0.422-0.272-0.797-0.61-1.056s-0.756-0.371-1.178-0.316c-0.422 0.056-0.797 0.272-1.056 0.61-0.239 0.311-0.352 0.691-0.325 1.078zM21.882 2.589c-0.458-1.105-1.729-1.631-2.834-1.174-8.002 3.315-14.235 9.547-17.55 17.55-0.222 0.535-0.222 1.125 0 1.66s0.639 0.952 1.174 1.174 1.125 0.222 1.66 0c0.535-0.222 0.952-0.638 1.174-1.174 1.419-3.425 3.468-6.492 6.089-9.113s5.688-4.67 9.113-6.089c1.105-0.458 1.631-1.729 1.174-2.833zM27.434 21.542c-0.057 0.001-0.113 0.005-0.17 0.012-0.422 0.056-0.797 0.272-1.056 0.61s-0.371 0.756-0.316 1.178c0.115 0.871 0.916 1.486 1.788 1.372 0.269-0.035 0.521-0.14 0.736-0.298l-0.983-2.873zM28.832 25.63c-0.305 0.166-0.639 0.276-0.988 0.322-1.554 0.205-2.985-0.893-3.19-2.448-0.099-0.753 0.101-1.499 0.563-2.102 0.445-0.58 1.083-0.959 1.802-1.075l-1.242-3.632-1.429 1.096c-0.274 0.21-0.666 0.158-0.876-0.115s-0.158-0.666 0.115-0.876l1.763-1.353-3.231-9.447c-0.271 0.236-0.583 0.433-0.933 0.578-6.624 2.744-11.783 7.902-14.526 14.526-0.095 0.23-0.214 0.444-0.351 0.641l1.674 0.597c0.058-0.504 0.252-0.985 0.569-1.398 0.462-0.603 1.132-0.989 1.884-1.088 0.126-0.017 0.252-0.025 0.377-0.025 0.622 0 1.223 0.203 1.725 0.588 0.603 0.462 0.989 1.131 1.088 1.884 0.089 0.676-0.069 1.345-0.423 1.9l7.769 2.77 0.294-0.711c0.1-0.241 0.332-0.386 0.578-0.386 0.080 0 0.161 0.015 0.239 0.048 0.319 0.132 0.47 0.498 0.338 0.817l-0.27 0.653 8.295 2.958-1.615-4.721z"></path>
<path d="M6.832 15.233c-0.002 0.003-0.007 0.011-0.009 0.014-0.191 0.287-0.579 0.364-0.866 0.173s-0.364-0.578-0.175-0.865c0.12-0.184 0.32-0.284 0.524-0.284 0.116 0 0.233 0.032 0.337 0.099 0.29 0.187 0.374 0.573 0.188 0.864z"></path>
<path d="M5.881 16.785c-0.609 1.068-1.157 2.186-1.627 3.322-0.132 0.319-0.498 0.47-0.817 0.338s-0.47-0.498-0.338-0.817c0.491-1.184 1.061-2.349 1.696-3.463 0.115-0.202 0.326-0.316 0.543-0.316 0.105 0 0.211 0.027 0.309 0.082 0.3 0.171 0.404 0.553 0.233 0.853z"></path>
<path d="M19.64 24.001c-0.124 0.016-0.25 0.025-0.374 0.025-1.42 0-2.63-1.063-2.816-2.472-0.205-1.554 0.893-2.985 2.448-3.19 0.124-0.016 0.25-0.025 0.374-0.025 1.42 0 2.63 1.063 2.816 2.472 0.205 1.554-0.893 2.985-2.448 3.19zM20.849 20.974c-0.104-0.79-0.782-1.385-1.577-1.385-0.070 0-0.141 0.005-0.211 0.014-0.871 0.115-1.486 0.916-1.371 1.787 0.104 0.79 0.782 1.385 1.577 1.385 0.070 0 0.141-0.005 0.211-0.014 0.871-0.115 1.486-0.916 1.372-1.787z"></path>
<path d="M19.478 16.227c-0.124 0.016-0.25 0.025-0.374 0.025-1.42 0-2.63-1.063-2.816-2.472-0.099-0.753 0.101-1.499 0.563-2.102s1.131-0.989 1.884-1.088c0.124-0.016 0.25-0.024 0.374-0.024 1.42 0 2.63 1.063 2.816 2.472 0.205 1.554-0.893 2.985-2.447 3.19zM20.686 13.2c-0.104-0.79-0.782-1.385-1.577-1.385-0.070 0-0.141 0.005-0.211 0.014-0.422 0.056-0.797 0.272-1.056 0.61s-0.371 0.756-0.316 1.178c0.104 0.79 0.782 1.385 1.577 1.385 0.070 0 0.141-0.005 0.211-0.014 0.871-0.115 1.486-0.916 1.372-1.787z"></path>
<path d="M15.355 18.816l-1.921 0.253c-0.342 0.045-0.656-0.196-0.701-0.538s0.196-0.656 0.538-0.701l1.921-0.253c0.028-0.004 0.055-0.005 0.082-0.005 0.309 0 0.577 0.229 0.619 0.543 0.045 0.342-0.196 0.656-0.538 0.701z"></path>
<path d="M14.381 14.204l-0.17 1.289c-0.045 0.342-0.359 0.583-0.701 0.538s-0.583-0.359-0.538-0.701l0.17-1.289c0.041-0.315 0.31-0.543 0.619-0.543 0.027 0 0.055 0.002 0.082 0.005 0.342 0.045 0.583 0.359 0.538 0.701z"></path>
</symbol>
<symbol id="icon-sandwich" viewBox="0 0 32 32">
<path d="M30.4 4.8h-1.067v-1.067c0-0.884-0.716-1.6-1.6-1.6h-1.27l-0.772-1.543c-0.179-0.363-0.55-0.592-0.954-0.59h-0.737c-0.589 0-1.067 0.478-1.067 1.067v1.067h-5.867c-0.884 0-1.6 0.716-1.6 1.6v1.067h-1.067c-0.884 0-1.6 0.716-1.6 1.6v1.067c0 0.589 0.478 1.067 1.067 1.067h0.057l0.624 5.51-2.57-0.604c-0.13-0.199-0.267-0.397-0.419-0.591l-0.907-3.902c-0.056-0.241-0.271-0.412-0.518-0.413h-3.065c-1.446-1.274-3.155-1.85-4.444-1.471l-0.783-0.853c-0.296-0.323-0.761-0.429-1.167-0.267-0.407 0.157-0.676 0.549-0.675 0.986v23.483c0.001 0.877 0.712 1.588 1.589 1.589h26.144c0.271-0 0.499-0.204 0.53-0.473l2.613-22.994h0.058c0.589 0 1.067-0.478 1.067-1.067v-1.067c0-0.884-0.716-1.6-1.6-1.6zM24 1.067h0.737l0.533 1.067h-1.27v-1.067zM16.533 3.733c0-0.295 0.239-0.533 0.533-0.533h10.667c0.295 0 0.533 0.239 0.533 0.533v1.067h-11.733v-1.067zM15.040 15.253l0.034 0.006 0.431 0.102 0.289 3.027c-0.838-0.593-1.84-0.909-2.866-0.904 0.198-0.941 0.093-1.92-0.299-2.798l2.411 0.566zM16.082 19.971l0.007 0.006c0.193 0.179 0.377 0.368 0.549 0.566 0.635 0.708 1.101 1.55 1.365 2.463 0.090 0.318 0.137 0.647 0.138 0.978l-4.981-5.433c1.108 0.124 2.14 0.625 2.922 1.419zM10.462 13.193v-0.001c1.151 1.323 1.687 2.912 1.433 3.979l-5.428-5.917c1.095-0.245 2.76 0.524 3.995 1.939zM9.707 9.6l0.427 1.816c-0.429-0.334-0.896-0.616-1.391-0.839-0.202-0.341-0.427-0.667-0.675-0.977h1.639zM7.026 9.997h0.002c0.044 0.051 0.081 0.107 0.123 0.16-0.501-0.046-1.005 0.039-1.463 0.246l-2.193-2.391c1.072 0.015 2.471 0.77 3.53 1.985zM22.354 30.62c-0.083 0.19-0.27 0.313-0.477 0.313h-20.288c-0.289 0-0.523-0.234-0.523-0.523l-0.010-23.477 20.447 22.297c0.012 0.016 0.025 0.032 0.039 0.047l0.715 0.78c0.141 0.152 0.179 0.372 0.096 0.562zM19.053 24.978c0.098-0.318 0.147-0.65 0.147-0.983 0.28 0.236 0.541 0.494 0.781 0.772 0.298 0.34 0.562 0.709 0.79 1.1 0.311 0.524 0.532 1.096 0.651 1.694l-2.369-2.582zM27.257 30.933h-3.885c0.2-0.553 0.073-1.171-0.328-1.6l-0.537-0.587c0.105-0.893-0.039-1.797-0.416-2.613h5.712l-0.546 4.8zM27.924 25.067h-6.4c-0.219-0.351-0.464-0.685-0.734-1-0.525-0.609-1.141-1.133-1.827-1.554-0.313-0.988-0.831-1.899-1.52-2.674-0.16-0.181-0.32-0.35-0.488-0.513l-0.421-4.444c-0.022-0.227-0.186-0.416-0.408-0.468l-0.473-0.112-0.112-0.969h13.717l-1.334 11.733zM29.379 12.267h-13.959l-0.422-3.733h14.805l-0.424 3.733zM30.933 7.467h-17.067v-1.067c0-0.295 0.239-0.533 0.533-0.533h16c0.295 0 0.533 0.239 0.533 0.533v1.067z"></path>
<path d="M22.619 23.467c0.030 0 0.060-0.004 0.090-0.005 0.008 0 0.016 0.005 0.024 0.005 0.027-0.002 0.053-0.005 0.079-0.011 0.835-0.056 1.604-0.472 2.108-1.14 0.672-0.944 0.864-2.148 0.52-3.254-0.074-0.276-0.142-0.547-0.207-0.809-0.416-1.668-0.813-3.241-2.498-3.311-0.017 0-0.033-0.003-0.050-0.003s-0.042-0.004-0.066-0.004c-1.885 0-3.419 1.914-3.419 4.267s1.534 4.267 3.419 4.267zM23.031 16.080c0.551 0.216 0.794 0.939 1.166 2.43 0.067 0.267 0.136 0.546 0.213 0.829 0.255 0.786 0.131 1.646-0.338 2.327-0.17 0.223-0.387 0.405-0.637 0.533-0.018-0.917-0.199-1.823-0.533-2.677-0.053-0.166-0.107-0.327-0.154-0.48-0.31-1.010 0.053-2.318 0.282-2.963zM21.885 16.16c-0.347 1.030-0.4 2.137-0.154 3.195 0.049 0.16 0.104 0.326 0.16 0.498 0.267 0.814 0.587 1.798 0.456 2.522-1.169-0.182-2.081-1.536-2.081-3.175 0-1.416 0.68-2.618 1.619-3.040z"></path>
<path d="M2.823 28.046l-0.377 0.377c-0.139 0.134-0.194 0.332-0.145 0.519s0.194 0.332 0.381 0.381c0.187 0.049 0.385-0.007 0.519-0.145l0.377-0.377c0.202-0.209 0.199-0.542-0.006-0.748s-0.538-0.209-0.748-0.007z"></path>
<path d="M7.922 24.456c0.208-0.208 0.208-0.546 0-0.755s-0.546-0.208-0.755 0l-0.377 0.377c-0.135 0.135-0.188 0.331-0.138 0.515s0.193 0.328 0.377 0.377 0.381-0.003 0.515-0.138l0.378-0.377z"></path>
<path d="M3.2 23.090l-0.377 0.377c-0.139 0.134-0.194 0.332-0.145 0.519s0.194 0.332 0.381 0.381c0.187 0.049 0.385-0.007 0.519-0.145l0.377-0.377c0.202-0.209 0.199-0.542-0.006-0.748s-0.538-0.209-0.748-0.007z"></path>
<path d="M3.2 19.356l-0.377 0.377c-0.139 0.134-0.194 0.332-0.145 0.519s0.194 0.332 0.381 0.381c0.187 0.049 0.385-0.007 0.519-0.145l0.377-0.377c0.202-0.209 0.199-0.542-0.006-0.748s-0.538-0.209-0.748-0.006z"></path>
<path d="M8 28.046l-0.377 0.377c-0.139 0.134-0.194 0.332-0.145 0.519s0.194 0.332 0.381 0.381c0.186 0.049 0.385-0.007 0.519-0.145l0.377-0.377c0.202-0.209 0.199-0.542-0.006-0.748s-0.538-0.209-0.748-0.007z"></path>
<path d="M11.89 28.046l-0.377 0.377c-0.139 0.134-0.194 0.332-0.145 0.519s0.194 0.332 0.381 0.381c0.186 0.049 0.385-0.007 0.519-0.145l0.377-0.377c0.202-0.209 0.199-0.542-0.006-0.748s-0.538-0.209-0.748-0.007z"></path>
</symbol>
<symbol id="icon-search" viewBox="0 0 31 32">
<ellipse cx="9.76663" cy="10.6301" rx="8.98856" ry="8.88424" stroke="#363853" stroke-width="1.5" stroke-linecap="round" stroke-linejoin="round"/>
<path d="M16.0184 17.2708L19.5424 20.7448" stroke="#363853" stroke-width="1.5" stroke-linecap="round" stroke-linejoin="round"/>
</symbol>
<symbol id="icon-twitter" viewBox="0 0 40 32">
<path d="M38.638 3.729c-1.421 0.613-2.967 1.054-4.56 1.226 1.654-0.982 2.892-2.534 3.483-4.365-1.552 0.923-3.252 1.57-5.024 1.913-0.741-0.792-1.637-1.423-2.632-1.854s-2.069-0.652-3.153-0.649c-4.388 0-7.917 3.557-7.917 7.922 0 0.613 0.074 1.226 0.195 1.816-6.57-0.344-12.43-3.483-16.326-8.288-0.71 1.212-1.082 2.593-1.077 3.998 0 2.749 1.398 5.173 3.529 6.598-1.256-0.049-2.483-0.395-3.58-1.008v0.098c0 3.849 2.721 7.039 6.348 7.773-0.681 0.177-1.381 0.267-2.085 0.269-0.515 0-1.003-0.051-1.495-0.121 1.003 3.139 3.924 5.419 7.402 5.493-2.721 2.131-6.129 3.385-9.83 3.385-0.664 0-1.277-0.023-1.913-0.098 3.51 2.252 7.676 3.552 12.161 3.552 14.562 0 22.53-12.063 22.53-22.534 0-0.344 0-0.687-0.023-1.031 1.542-1.128 2.893-2.526 3.97-4.095z"></path>
</symbol>
</defs>
</svg>
